<svg width="50" height="50" viewBox="0 0 50 50" fill="none" xmlns="http://www.w3.org/2000/svg">
<rect opacity="0.2" width="50" height="50" rx="12" fill="#FF993A"/>
<path fill-rule="evenodd" clip-rule="evenodd" d="M17.293 30.6857C17.083 30.4757 16.978 30.1837 17.004 29.8877L17.383 25.7177C17.425 25.2607 17.627 24.8297 17.953 24.5037L26.949 15.5077C27.651 14.8027 28.924 14.8377 29.665 15.5767L32.403 18.3147L32.404 18.3157C33.169 19.0817 33.2 20.2997 32.472 21.0297L23.475 30.0267C23.15 30.3517 22.719 30.5537 22.261 30.5957L18.091 30.9747C18.061 30.9767 18.031 30.9777 18 30.9777C17.737 30.9777 17.482 30.8737 17.293 30.6857ZM29.019 21.6567L26.324 18.9617L28.272 17.0127L30.966 19.7067L29.019 21.6567ZM22.08 28.6027L19.103 28.8737L19.367 25.9177L24.984 20.3007L27.68 22.9977L22.08 28.6027ZM32 34.9777C32.55 34.9777 33 34.5277 33 33.9777C33 33.4287 32.55 32.9777 32 32.9777H18C17.451 32.9777 17 33.4287 17 33.9777C17 34.5277 17.451 34.9777 18 34.9777H32Z" fill="#FF993A"/>
</svg>
