<svg width="50" height="50" viewBox="0 0 50 50" fill="none" xmlns="http://www.w3.org/2000/svg">
<rect opacity="0.2" width="50" height="50" rx="12" fill="#8AC53E"/>
<g clip-path="url(#clip0_501_5552)">
<path d="M14.1992 32.2002V25.0002C14.1992 22.1359 15.3371 19.3888 17.3625 17.3634C19.3879 15.338 22.1349 14.2002 24.9992 14.2002C27.8636 14.2002 30.6106 15.338 32.636 17.3634C34.6614 19.3888 35.7992 22.1359 35.7992 25.0002V32.2002" stroke="#8AC53E" stroke-width="2" stroke-linecap="round" stroke-linejoin="round"/>
<path d="M35.7992 33.3999C35.7992 34.0364 35.5464 34.6469 35.0963 35.097C34.6462 35.547 34.0357 35.7999 33.3992 35.7999H32.1992C31.5627 35.7999 30.9522 35.547 30.5022 35.097C30.0521 34.6469 29.7992 34.0364 29.7992 33.3999V29.7999C29.7992 29.1634 30.0521 28.5529 30.5022 28.1028C30.9522 27.6528 31.5627 27.3999 32.1992 27.3999H35.7992V33.3999ZM14.1992 33.3999C14.1992 34.0364 14.4521 34.6469 14.9022 35.097C15.3522 35.547 15.9627 35.7999 16.5992 35.7999H17.7992C18.4357 35.7999 19.0462 35.547 19.4963 35.097C19.9464 34.6469 20.1992 34.0364 20.1992 33.3999V29.7999C20.1992 29.1634 19.9464 28.5529 19.4963 28.1028C19.0462 27.6528 18.4357 27.3999 17.7992 27.3999H14.1992V33.3999Z" stroke="#8AC53E" stroke-width="2" stroke-linecap="round" stroke-linejoin="round"/>
</g>
<defs>
<clipPath id="clip0_501_5552">
<rect width="24" height="24" fill="white" transform="translate(13 13)"/>
</clipPath>
</defs>
</svg>
