<svg width="50" height="50" viewBox="0 0 50 50" fill="none" xmlns="http://www.w3.org/2000/svg">
<rect opacity="0.2" width="50" height="50" rx="12" fill="#369FFF"/>
<path d="M36.5348 17.8235C36.5332 17.8235 36.5317 17.8235 36.5301 17.8235H34.9531V17.2839C34.9616 17.0703 34.8234 16.8783 34.6181 16.8187C33.5233 16.5317 32.3959 16.3879 31.264 16.3907C29.4032 16.3907 26.8678 16.8094 24.993 18.7167C23.1322 16.7907 20.5782 16.3907 18.722 16.3907C17.5902 16.3879 16.4628 16.5317 15.3679 16.8187C15.1626 16.8783 15.0245 17.0703 15.033 17.2839V17.8188H13.4652C13.2083 17.8188 13 18.0271 13 18.2841V33.1427C13 33.3997 13.2083 33.608 13.4652 33.608C13.5451 33.6077 13.6236 33.5869 13.6932 33.5475C13.7397 33.5242 18.3917 30.9795 24.886 32.6171H24.9558H24.9977C25.0348 32.6215 25.0722 32.6215 25.1093 32.6171C31.6222 30.9656 36.2743 33.5056 36.3022 33.5475C36.4461 33.6306 36.6235 33.6306 36.7674 33.5475C36.9104 33.4649 36.999 33.3126 37 33.1474V18.2887C37 18.0318 36.7918 17.8235 36.5348 17.8235ZM13.9304 32.4031V18.7539H15.0423V30.4213C15.0393 30.6782 15.2453 30.8888 15.5022 30.8917C15.5273 30.892 15.5524 30.8903 15.5772 30.8865C16.5396 30.7396 17.5113 30.6618 18.4848 30.6539C19.8333 30.6305 21.1762 30.8333 22.4576 31.254C19.5638 30.9041 16.6284 31.2996 13.9304 32.4031ZM18.4848 29.7281C17.6386 29.7301 16.7935 29.7844 15.9541 29.891V17.6514C16.8598 17.4496 17.7848 17.3466 18.7127 17.3443C20.4526 17.3443 22.8531 17.7444 24.5185 19.6238L24.5325 31.2121C23.5648 30.5795 21.6761 29.7281 18.4848 29.7281ZM25.4629 19.6238C27.1283 17.763 29.5288 17.3443 31.2687 17.3443C32.1966 17.3471 33.1215 17.45 34.0273 17.6514V29.891C33.1926 29.7834 32.3521 29.7275 31.5106 29.7235C28.3379 29.7235 26.4445 30.5748 25.4629 31.2075V19.6238ZM36.0649 32.4031C33.3612 31.2966 30.4191 30.901 27.5191 31.254C28.8066 30.8318 30.1559 30.6289 31.5106 30.6539C32.4902 30.6594 33.4681 30.7355 34.4367 30.8818C34.6907 30.9204 34.9279 30.7457 34.9665 30.4917C34.9702 30.4669 34.972 30.4418 34.9717 30.4166V18.7539H36.0835L36.0649 32.4031Z" fill="#369FFF"/>
</svg>
