<svg width="90" height="81" viewBox="0 0 90 81" fill="none" xmlns="http://www.w3.org/2000/svg">
<g clip-path="url(#clip0_501_3053)">
<path d="M45.0041 28.4785H5.55078V31.7528H45.0041V28.4785Z" fill="#7C563E"/>
<path d="M44.7537 31.7598L84.207 31.7598V28.4855L44.7537 28.4855V31.7598Z" fill="#7C563E"/>
<path d="M5.55078 29.8777V28.4785H84.203V30.9057L5.55078 29.8777Z" fill="#CCC1B9"/>
<path d="M55.841 20.5977L82.3066 20.5977V19.8648L55.841 19.8648V20.5977Z" fill="#8B5C38"/>
<path d="M55.8565 25.0786L82.209 25.0786V20.5955L55.8565 20.5955V25.0786Z" fill="#B0865D"/>
<path d="M33.9207 19.8647H7.45508V20.5976H33.9207V19.8647Z" fill="#8B5C38"/>
<path d="M33.9013 20.5977H7.54883V25.0807H33.9013V20.5977Z" fill="#B0865D"/>
<path d="M34.2893 19.2173H6.29688V19.8645H34.2893V19.2173Z" fill="#D1B79F"/>
<path d="M7.54883 21.5685V19.8647H82.2048V22.8249L7.54883 21.5685Z" fill="#CCC1B9"/>
<path d="M8.09598 19.8647H7.45508V21.2258H8.09598V19.8647Z" fill="#B0865D"/>
<path d="M8.9827 19.8647H8.3418V21.2258H8.9827V19.8647Z" fill="#B0865D"/>
<path d="M11.3479 19.8647H10.707V21.2258H11.3479V19.8647Z" fill="#B0865D"/>
<path d="M12.2425 19.8647H11.6016V21.2258H12.2425V19.8647Z" fill="#B0865D"/>
<path d="M14.6097 19.8647H13.9688V21.2258H14.6097V19.8647Z" fill="#B0865D"/>
<path d="M15.4964 19.8647H14.8555V21.2258H15.4964V19.8647Z" fill="#B0865D"/>
<path d="M17.8597 19.8647H17.2188V21.2258H17.8597V19.8647Z" fill="#B0865D"/>
<path d="M18.7542 19.8647H18.1133V21.2258H18.7542V19.8647Z" fill="#B0865D"/>
<path d="M21.1214 19.8647H20.4805V21.2258H21.1214V19.8647Z" fill="#B0865D"/>
<path d="M22.0081 19.8647H21.3672V21.2258H22.0081V19.8647Z" fill="#B0865D"/>
<path d="M24.3831 19.8647H23.7422V21.2258H24.3831V19.8647Z" fill="#B0865D"/>
<path d="M25.2698 19.8647H24.6289V21.2258H25.2698V19.8647Z" fill="#B0865D"/>
<path d="M27.635 19.8647H26.9941V21.2258H27.635V19.8647Z" fill="#B0865D"/>
<path d="M28.5296 19.8647H27.8887V21.2258H28.5296V19.8647Z" fill="#B0865D"/>
<path d="M30.8948 19.8647H30.2539V21.2258H30.8948V19.8647Z" fill="#B0865D"/>
<path d="M31.7815 19.8647H31.1406V21.2258H31.7815V19.8647Z" fill="#B0865D"/>
<path d="M55.4665 19.8599L83.459 19.8599V19.2126L55.4665 19.2126V19.8599Z" fill="#D1B79F"/>
<path d="M81.6599 21.2227H82.3008V19.8616H81.6599V21.2227Z" fill="#B0865D"/>
<path d="M80.7751 21.2227H81.416V19.8616H80.7751V21.2227Z" fill="#B0865D"/>
<path d="M78.406 21.2227H79.0469V19.8616H78.406V21.2227Z" fill="#B0865D"/>
<path d="M77.5114 21.2227H78.1523V19.8616H77.5114V21.2227Z" fill="#B0865D"/>
<path d="M75.1521 21.2227H75.793V19.8616H75.1521V21.2227Z" fill="#B0865D"/>
<path d="M74.2575 21.2227H74.8984V19.8616H74.2575V21.2227Z" fill="#B0865D"/>
<path d="M71.8884 21.2227H72.5293V19.8616H71.8884V21.2227Z" fill="#B0865D"/>
<path d="M71.0036 21.2227H71.6445V19.8616H71.0036V21.2227Z" fill="#B0865D"/>
<path d="M68.6364 21.2227H69.2773V19.8616H68.6364V21.2227Z" fill="#B0865D"/>
<path d="M67.7419 21.2227H68.3828V19.8616H67.7419V21.2227Z" fill="#B0865D"/>
<path d="M65.3728 21.2227H66.0137V19.8616H65.3728V21.2227Z" fill="#B0865D"/>
<path d="M64.488 21.2227H65.1289V19.8616H64.488V21.2227Z" fill="#B0865D"/>
<path d="M62.1189 21.2227H62.7598V19.8616H62.1189V21.2227Z" fill="#B0865D"/>
<path d="M61.2243 21.2227H61.8652V19.8616H61.2243V21.2227Z" fill="#B0865D"/>
<path d="M58.865 21.2227H59.5059V19.8616H58.865V21.2227Z" fill="#B0865D"/>
<path d="M57.9704 21.2227H58.6113V19.8616H57.9704V21.2227Z" fill="#B0865D"/>
<path d="M43.0063 11.5836C43.0063 11.5836 43.3645 11.4979 43.7792 11.2029C44.1939 10.9078 43.5247 9.6038 43.6755 8.75668C43.8263 7.91908 44.7311 6.58653 44.8725 6.74834C45.0139 6.91015 45.3532 7.31943 44.995 7.37654C44.6369 7.43365 44.0996 8.2427 44.2316 8.46162C44.3635 8.68054 44.8536 9.22307 44.8725 9.06126C44.8913 8.89945 45.1552 8.84235 45.1552 8.84235C45.1552 8.84235 44.5143 7.15762 45.4474 7.18618C46.3711 7.21473 45.7679 8.78524 45.7679 8.78524C45.7679 8.78524 45.9752 9.04223 46.0506 9.15645C46.126 9.27066 46.4653 9.33729 46.7952 9.72754C47.1156 10.1178 48.1524 16.1428 48.1524 16.1428H42.4785L43.0063 11.5836Z" fill="#142023"/>
<path d="M10.0673 35.7505H5.55273V72.0054H10.0673V35.7505Z" fill="#BC9875"/>
<path d="M6.29745 71.1391C6.15607 71.1391 6.04297 71.0249 6.04297 70.8821V36.4928C6.04297 36.3501 6.15607 36.2358 6.29745 36.2358C6.43882 36.2358 6.55192 36.3501 6.55192 36.4928V70.8726C6.56135 71.0154 6.43882 71.1391 6.29745 71.1391Z" fill="#B0865D"/>
<path d="M7.32479 71.1391C7.18341 71.1391 7.07031 71.0249 7.07031 70.8821V36.4928C7.07031 36.3501 7.18341 36.2358 7.32479 36.2358C7.46616 36.2358 7.57927 36.3501 7.57927 36.4928V70.8726C7.57927 71.0154 7.46616 71.1391 7.32479 71.1391Z" fill="#B0865D"/>
<path d="M8.34237 71.1391C8.20099 71.1391 8.08789 71.0249 8.08789 70.8821V36.4928C8.08789 36.3501 8.20099 36.2358 8.34237 36.2358C8.48374 36.2358 8.59685 36.3501 8.59685 36.4928V70.8726C8.59685 71.0154 8.48374 71.1391 8.34237 71.1391Z" fill="#B0865D"/>
<path d="M9.36971 71.1391C9.22833 71.1391 9.11523 71.0249 9.11523 70.8821V36.4928C9.11523 36.3501 9.22833 36.2358 9.36971 36.2358C9.51109 36.2358 9.62419 36.3501 9.62419 36.4928V70.8726C9.62419 71.0154 9.51109 71.1391 9.36971 71.1391Z" fill="#B0865D"/>
<path d="M10.0769 72.1958H5.59057C5.39265 72.1958 5.23242 72.034 5.23242 71.8341V71.8055C5.23242 71.6057 5.39265 71.4438 5.59057 71.4438H10.0769C10.2748 71.4438 10.4351 71.6057 10.4351 71.8055V71.8341C10.4351 72.034 10.2748 72.1958 10.0769 72.1958Z" fill="#BC9875"/>
<path d="M10.7832 72.1958H4.83594V73.0334H10.7832V72.1958Z" fill="#B0865D"/>
<path d="M10.0766 35.7505H5.55253C5.37346 35.7505 5.22266 35.5982 5.22266 35.4174V35.3888C5.22266 35.208 5.37346 35.0557 5.55253 35.0557H10.0766C10.2556 35.0557 10.4064 35.208 10.4064 35.3888V35.4174C10.397 35.5982 10.2556 35.7505 10.0766 35.7505Z" fill="#BC9875"/>
<path d="M10.6691 34.3418H4.86328V35.0557H10.6691V34.3418Z" fill="#B0865D"/>
<path d="M24.8916 35.7505H20.377V72.0054H24.8916V35.7505Z" fill="#BC9875"/>
<path d="M21.1314 71.1296C20.9901 71.1296 20.877 71.0154 20.877 70.8726V36.4928C20.877 36.3501 20.9901 36.2358 21.1314 36.2358C21.2728 36.2358 21.3859 36.3501 21.3859 36.4928V70.8726C21.3859 71.0154 21.2728 71.1296 21.1314 71.1296Z" fill="#B0865D"/>
<path d="M22.149 71.1296C22.0076 71.1296 21.8945 71.0154 21.8945 70.8726V36.4928C21.8945 36.3501 22.0076 36.2358 22.149 36.2358C22.2904 36.2358 22.4035 36.3501 22.4035 36.4928V70.8726C22.4035 71.0154 22.2904 71.1296 22.149 71.1296Z" fill="#B0865D"/>
<path d="M23.1764 71.1296C23.035 71.1296 22.9219 71.0154 22.9219 70.8726V36.4928C22.9219 36.3501 23.035 36.2358 23.1764 36.2358C23.3177 36.2358 23.4308 36.3501 23.4308 36.4928V70.8726C23.4308 71.0154 23.3083 71.1296 23.1764 71.1296Z" fill="#B0865D"/>
<path d="M24.1939 71.1296C24.0526 71.1296 23.9395 71.0154 23.9395 70.8726V36.4928C23.9395 36.3501 24.0526 36.2358 24.1939 36.2358C24.3353 36.2358 24.4484 36.3501 24.4484 36.4928V70.8726C24.4484 71.0154 24.3353 71.1296 24.1939 71.1296Z" fill="#B0865D"/>
<path d="M24.9011 72.186H20.4148C20.2169 72.186 20.0566 72.0242 20.0566 71.8243V71.7958C20.0566 71.5959 20.2169 71.4341 20.4148 71.4341H24.9011C25.0991 71.4341 25.2593 71.5959 25.2593 71.7958V71.8243C25.2593 72.0242 25.0991 72.186 24.9011 72.186Z" fill="#BC9875"/>
<path d="M25.6074 72.186H19.6602V73.0236H25.6074V72.186Z" fill="#B0865D"/>
<path d="M24.9008 35.7505H20.3768C20.1977 35.7505 20.0469 35.5982 20.0469 35.4174V35.3888C20.0469 35.208 20.1977 35.0557 20.3768 35.0557H24.9008C25.0799 35.0557 25.2307 35.208 25.2307 35.3888V35.4174C25.2307 35.5982 25.0799 35.7505 24.9008 35.7505Z" fill="#BC9875"/>
<path d="M25.5051 34.3418H19.6992V35.0557H25.5051V34.3418Z" fill="#B0865D"/>
<path d="M39.7177 35.7412H35.2031V71.9961H39.7177V35.7412Z" fill="#BC9875"/>
<path d="M35.9576 71.1296C35.8162 71.1296 35.7031 71.0154 35.7031 70.8726V36.4928C35.7031 36.3501 35.8162 36.2358 35.9576 36.2358C36.099 36.2358 36.2121 36.3501 36.2121 36.4928V70.8726C36.2121 71.0154 36.099 71.1296 35.9576 71.1296Z" fill="#B0865D"/>
<path d="M36.9752 71.1296C36.8338 71.1296 36.7207 71.0154 36.7207 70.8726V36.4928C36.7207 36.3501 36.8338 36.2358 36.9752 36.2358C37.1166 36.2358 37.2297 36.3501 37.2297 36.4928V70.8726C37.2297 71.0154 37.1166 71.1296 36.9752 71.1296Z" fill="#B0865D"/>
<path d="M38.0025 71.1296C37.8611 71.1296 37.748 71.0154 37.748 70.8726V36.4928C37.748 36.3501 37.8611 36.2358 38.0025 36.2358C38.1439 36.2358 38.257 36.3501 38.257 36.4928V70.8726C38.257 71.0154 38.1439 71.1296 38.0025 71.1296Z" fill="#B0865D"/>
<path d="M39.0201 71.1296C38.8787 71.1296 38.7656 71.0154 38.7656 70.8726V36.4928C38.7656 36.3501 38.8787 36.2358 39.0201 36.2358C39.1615 36.2358 39.2746 36.3501 39.2746 36.4928V70.8726C39.2746 71.0154 39.1615 71.1296 39.0201 71.1296Z" fill="#B0865D"/>
<path d="M39.7276 72.186H35.2507C35.0528 72.186 34.8926 72.0242 34.8926 71.8243V71.7958C34.8926 71.5959 35.0528 71.4341 35.2507 71.4341H39.7371C39.935 71.4341 40.0952 71.5959 40.0952 71.7958V71.8243C40.0952 72.0242 39.9256 72.186 39.7276 72.186Z" fill="#BC9875"/>
<path d="M40.4336 72.186H34.4863V73.0236H40.4336V72.186Z" fill="#B0865D"/>
<path d="M39.727 35.7407H35.2029C35.0238 35.7407 34.873 35.5884 34.873 35.4076V35.379C34.873 35.1982 35.0238 35.0459 35.2029 35.0459H39.727C39.906 35.0459 40.0568 35.1982 40.0568 35.379V35.4076C40.0568 35.598 39.906 35.7407 39.727 35.7407Z" fill="#BC9875"/>
<path d="M40.3312 34.3418H34.5254V35.0557H40.3312V34.3418Z" fill="#B0865D"/>
<path d="M45.0041 32.0859H5.55078V34.3513H45.0041V32.0859Z" fill="#BC9875"/>
<path d="M45.0049 31.7622H5.0332V32.0858H45.0049V31.7622Z" fill="#D1B79F"/>
<path d="M8.08764 28.4785H6.29688V31.7528H8.08764V28.4785Z" fill="#B0865D"/>
<path d="M12.8181 28.4785H11.0273V31.7528H12.8181V28.4785Z" fill="#B0865D"/>
<path d="M17.5408 28.4785H15.75V31.7528H17.5408V28.4785Z" fill="#B0865D"/>
<path d="M22.2712 28.4785H20.4805V31.7528H22.2712V28.4785Z" fill="#B0865D"/>
<path d="M26.9939 28.4785H25.2031V31.7528H26.9939V28.4785Z" fill="#B0865D"/>
<path d="M31.7146 28.4785H29.9238V31.7528H31.7146V28.4785Z" fill="#B0865D"/>
<path d="M41.1697 28.4785H39.3789V31.7528H41.1697V28.4785Z" fill="#B0865D"/>
<path d="M36.447 28.4785H34.6562V31.7528H36.447V28.4785Z" fill="#B0865D"/>
<path d="M45.9001 28.4785H44.1094V31.7528H45.9001V28.4785Z" fill="#B0865D"/>
<path d="M44.8813 27.1934H3.32617V28.4783H44.8813V27.1934Z" fill="#B0865D"/>
<path d="M44.9192 26.5464H2.8457V27.1936H44.9192V26.5464Z" fill="#BC9875"/>
<path d="M44.9294 26.5941H2.84648L2.11133 25.5566H44.9294V26.5941Z" fill="#B0865D"/>
<path d="M44.9294 25.0806H2.11133V25.566H44.9294V25.0806Z" fill="#D1B79F"/>
<path d="M26.097 20.5688V21.3208H23.4392V22.0727H19.8953V22.8247H16.4646V23.5766H11.4693V24.3285H5.91797V25.0805H33.9387V24.3285V23.5766V22.8247V22.0727V21.3208V20.5688H26.097Z" fill="#BC9875"/>
<path d="M44.8817 16.876H32.3652V17.4185H44.8817V16.876Z" fill="#BC9875"/>
<path d="M44.9855 17.4185H44.7687H32.6387V19.2174H44.7687H44.9855H57.1156V17.4185H44.9855Z" fill="#7C563E"/>
<path d="M44.892 16.1431H33.9023V16.876H44.892V16.1431Z" fill="#D1B79F"/>
<path d="M34.5804 17.4185H33.9395V18.7796H34.5804V17.4185Z" fill="#B0865D"/>
<path d="M35.4671 17.4185H34.8262V18.7796H35.4671V17.4185Z" fill="#B0865D"/>
<path d="M38.0022 17.4185H37.3613V18.7796H38.0022V17.4185Z" fill="#B0865D"/>
<path d="M38.8968 17.4185H38.2559V18.7796H38.8968V17.4185Z" fill="#B0865D"/>
<path d="M41.4319 17.4185H40.791V18.7796H41.4319V17.4185Z" fill="#B0865D"/>
<path d="M42.3264 17.4185H41.6855V18.7796H42.3264V17.4185Z" fill="#B0865D"/>
<path d="M79.6885 72.0034H84.2031V35.7485H79.6885V72.0034Z" fill="#BC9875"/>
<path d="M83.4498 71.1391C83.5912 71.1391 83.7043 71.0249 83.7043 70.8821V36.4928C83.7043 36.3501 83.5912 36.2358 83.4498 36.2358C83.3084 36.2358 83.1953 36.3501 83.1953 36.4928V70.8726C83.1953 71.0154 83.3178 71.1391 83.4498 71.1391Z" fill="#B0865D"/>
<path d="M82.4322 71.1391C82.5736 71.1391 82.6867 71.0249 82.6867 70.8821V36.4928C82.6867 36.3501 82.5736 36.2358 82.4322 36.2358C82.2908 36.2358 82.1777 36.3501 82.1777 36.4928V70.8726C82.1777 71.0154 82.2908 71.1391 82.4322 71.1391Z" fill="#B0865D"/>
<path d="M81.4146 71.1391C81.556 71.1391 81.6691 71.0249 81.6691 70.8821V36.4928C81.6691 36.3501 81.556 36.2358 81.4146 36.2358C81.2733 36.2358 81.1602 36.3501 81.1602 36.4928V70.8726C81.1602 71.0154 81.2733 71.1391 81.4146 71.1391Z" fill="#B0865D"/>
<path d="M80.3873 71.1391C80.5287 71.1391 80.6418 71.0249 80.6418 70.8821V36.4928C80.6418 36.3501 80.5287 36.2358 80.3873 36.2358C80.2459 36.2358 80.1328 36.3501 80.1328 36.4928V70.8726C80.1328 71.0154 80.2459 71.1391 80.3873 71.1391Z" fill="#B0865D"/>
<path d="M79.6804 72.1953H84.1668C84.3647 72.1953 84.5249 72.0335 84.5249 71.8336V71.8051C84.5249 71.6052 84.3647 71.4434 84.1668 71.4434H79.6804C79.4825 71.4434 79.3223 71.6052 79.3223 71.8051V71.8336C79.3223 72.0335 79.4825 72.1953 79.6804 72.1953Z" fill="#BC9875"/>
<path d="M78.9727 73.0332H84.9199V72.1956H78.9727V73.0332Z" fill="#B0865D"/>
<path d="M79.6795 35.75H84.2035C84.3826 35.75 84.5334 35.5977 84.5334 35.4169V35.3883C84.5334 35.2075 84.3826 35.0552 84.2035 35.0552H79.6795C79.5004 35.0552 79.3496 35.2075 79.3496 35.3883V35.4169C79.359 35.5977 79.5004 35.75 79.6795 35.75Z" fill="#BC9875"/>
<path d="M79.0848 35.0615H84.8906V34.3477H79.0848V35.0615Z" fill="#B0865D"/>
<path d="M64.8584 71.9966H69.373V35.7417H64.8584V71.9966Z" fill="#BC9875"/>
<path d="M68.6236 71.1296C68.765 71.1296 68.8781 71.0154 68.8781 70.8726V36.4928C68.8781 36.3501 68.765 36.2358 68.6236 36.2358C68.4822 36.2358 68.3691 36.3501 68.3691 36.4928V70.8726C68.3691 71.0154 68.4822 71.1296 68.6236 71.1296Z" fill="#B0865D"/>
<path d="M67.606 71.1296C67.7474 71.1296 67.8605 71.0154 67.8605 70.8726V36.4928C67.8605 36.3501 67.7474 36.2358 67.606 36.2358C67.4647 36.2358 67.3516 36.3501 67.3516 36.4928V70.8726C67.3516 71.0154 67.4647 71.1296 67.606 71.1296Z" fill="#B0865D"/>
<path d="M66.5787 71.1296C66.7201 71.1296 66.8332 71.0154 66.8332 70.8726V36.4928C66.8332 36.3501 66.7201 36.2358 66.5787 36.2358C66.4373 36.2358 66.3242 36.3501 66.3242 36.4928V70.8726C66.3242 71.0154 66.4467 71.1296 66.5787 71.1296Z" fill="#B0865D"/>
<path d="M65.5611 71.1296C65.7025 71.1296 65.8156 71.0154 65.8156 70.8726V36.4928C65.8156 36.3501 65.7025 36.2358 65.5611 36.2358C65.4197 36.2358 65.3066 36.3501 65.3066 36.4928V70.8726C65.3066 71.0154 65.4197 71.1296 65.5611 71.1296Z" fill="#B0865D"/>
<path d="M64.8546 72.186H69.341C69.5389 72.186 69.6991 72.0242 69.6991 71.8243V71.7958C69.6991 71.5959 69.5389 71.4341 69.341 71.4341H64.8546C64.6567 71.4341 64.4965 71.5959 64.4965 71.7958V71.8243C64.487 72.0242 64.6567 72.186 64.8546 72.186Z" fill="#BC9875"/>
<path d="M64.1426 73.0356H70.0898V72.198H64.1426V73.0356Z" fill="#B0865D"/>
<path d="M64.8533 35.75H69.3773C69.5564 35.75 69.7072 35.5977 69.7072 35.4169V35.3883C69.7072 35.2075 69.5564 35.0552 69.3773 35.0552H64.8533C64.6742 35.0552 64.5234 35.2075 64.5234 35.3883V35.4169C64.5234 35.5977 64.6742 35.75 64.8533 35.75Z" fill="#BC9875"/>
<path d="M64.2547 35.0547H70.0605V34.3408H64.2547V35.0547Z" fill="#B0865D"/>
<path d="M50.0303 71.9995H54.5449L54.5449 35.7446H50.0303L50.0303 71.9995Z" fill="#BC9875"/>
<path d="M53.7994 71.1296C53.9408 71.1296 54.0539 71.0154 54.0539 70.8726V36.4928C54.0539 36.3501 53.9408 36.2358 53.7994 36.2358C53.658 36.2358 53.5449 36.3501 53.5449 36.4928V70.8726C53.5449 71.0154 53.658 71.1296 53.7994 71.1296Z" fill="#B0865D"/>
<path d="M52.7818 71.1296C52.9232 71.1296 53.0363 71.0154 53.0363 70.8726V36.4928C53.0363 36.3501 52.9232 36.2358 52.7818 36.2358C52.6404 36.2358 52.5273 36.3501 52.5273 36.4928V70.8726C52.5273 71.0154 52.6404 71.1296 52.7818 71.1296Z" fill="#B0865D"/>
<path d="M51.7545 71.1296C51.8959 71.1296 52.009 71.0154 52.009 70.8726V36.4928C52.009 36.3501 51.8959 36.2358 51.7545 36.2358C51.6131 36.2358 51.5 36.3501 51.5 36.4928V70.8726C51.5 71.0154 51.6131 71.1296 51.7545 71.1296Z" fill="#B0865D"/>
<path d="M50.7369 71.1296C50.8783 71.1296 50.9914 71.0154 50.9914 70.8726V36.4928C50.9914 36.3501 50.8783 36.2358 50.7369 36.2358C50.5955 36.2358 50.4824 36.3501 50.4824 36.4928V70.8726C50.4824 71.0154 50.5955 71.1296 50.7369 71.1296Z" fill="#B0865D"/>
<path d="M50.0285 72.186H54.5148C54.7127 72.186 54.8729 72.0242 54.8729 71.8243V71.7958C54.8729 71.5959 54.7127 71.4341 54.5148 71.4341H50.0285C49.8305 71.4341 49.6703 71.5959 49.6703 71.7958V71.8243C49.6609 72.0242 49.8305 72.186 50.0285 72.186Z" fill="#BC9875"/>
<path d="M49.3145 73.0293H55.2617V72.1917H49.3145V73.0293Z" fill="#B0865D"/>
<path d="M50.0291 35.7407H54.5531C54.7322 35.7407 54.883 35.5884 54.883 35.4076V35.379C54.883 35.1982 54.7322 35.0459 54.5531 35.0459H50.0291C49.85 35.0459 49.6992 35.1982 49.6992 35.379V35.4076C49.6992 35.598 49.85 35.7407 50.0291 35.7407Z" fill="#BC9875"/>
<path d="M49.4266 35.0479H55.2324V34.334H49.4266V35.0479Z" fill="#B0865D"/>
<path d="M44.7537 34.3442L84.207 34.3442V32.0789L44.7537 32.0789V34.3442Z" fill="#BC9875"/>
<path d="M44.7529 32.0811L84.7246 32.0811V31.7574L44.7529 31.7574V32.0811Z" fill="#D1B79F"/>
<path d="M81.6604 31.7598H83.4512V28.4855H81.6604V31.7598Z" fill="#B0865D"/>
<path d="M76.9417 31.7598H78.7324V28.4855H76.9417V31.7598Z" fill="#B0865D"/>
<path d="M72.2112 31.7598H74.002V28.4855H72.2112V31.7598Z" fill="#B0865D"/>
<path d="M67.4827 31.7598H69.2734V28.4855H67.4827V31.7598Z" fill="#B0865D"/>
<path d="M62.762 31.7598H64.5527V28.4855H62.762V31.7598Z" fill="#B0865D"/>
<path d="M58.0315 31.7598H59.8223V28.4855H58.0315V31.7598Z" fill="#B0865D"/>
<path d="M48.5823 31.7598H50.373V28.4855H48.5823V31.7598Z" fill="#B0865D"/>
<path d="M53.3128 31.7598H55.1035V28.4855H53.3128V31.7598Z" fill="#B0865D"/>
<path d="M43.8538 31.7598H45.6445V28.4855H43.8538V31.7598Z" fill="#B0865D"/>
<path d="M44.8706 28.4829L86.4258 28.4829V27.198L44.8706 27.198V28.4829Z" fill="#B0865D"/>
<path d="M44.8347 27.2007L86.9082 27.2007V26.6106L44.8347 26.6106V27.2007Z" fill="#BC9875"/>
<path d="M44.8262 26.5941H86.9091L87.6443 25.5566H44.8262V26.5941Z" fill="#B0865D"/>
<path d="M44.8284 25.5576L87.6465 25.5576V25.0722L44.8284 25.0722V25.5576Z" fill="#D1B79F"/>
<path d="M78.2838 24.3285V23.5766H73.2885V22.8247H69.8578V22.0727H66.314V21.3208H63.6561V20.5688H55.8145V21.3208V22.0727V22.8247V23.5766V24.3285V25.0805H83.8352V24.3285H78.2838Z" fill="#BC9875"/>
<path d="M44.8702 17.4219H57.3867V16.8793H44.8702V17.4219Z" fill="#BC9875"/>
<path d="M44.8678 16.8784H55.8574V16.1455H44.8678V16.8784Z" fill="#D1B79F"/>
<path d="M55.1755 18.7808H55.8164V17.4197H55.1755V18.7808Z" fill="#B0865D"/>
<path d="M54.2907 18.7808H54.9316V17.4197H54.2907V18.7808Z" fill="#B0865D"/>
<path d="M51.7478 18.7808H52.3887V17.4197H51.7478V18.7808Z" fill="#B0865D"/>
<path d="M50.863 18.7808H51.5039V17.4197H50.863V18.7808Z" fill="#B0865D"/>
<path d="M48.32 18.7808H48.9609V17.4197H48.32V18.7808Z" fill="#B0865D"/>
<path d="M47.4255 18.7808H48.0664V17.4197H47.4255V18.7808Z" fill="#B0865D"/>
<path d="M39.9161 14.2201C39.9161 14.2201 40.6136 14.0773 40.3402 13.0493C40.0669 12.0214 38.7945 11.2313 38.6343 10.8792C38.4646 10.527 37.8991 8.09986 37.1828 7.95708C36.4665 7.82383 36.9189 9.32771 37.0132 9.43241C37.1074 9.53711 37.2865 10.8411 37.0886 11.1171C36.8907 11.3932 36.5325 11.4407 36.6173 12.3355C36.6645 12.8685 36.2969 13.2682 36.2969 13.3444C36.2969 13.4301 36.4477 15.21 36.5419 15.3432C36.6362 15.4765 36.8341 15.9143 36.8341 15.9143L37.1074 15.3432L36.787 15.0672C36.787 15.0672 36.655 13.7346 36.853 13.5728C37.0509 13.411 37.918 13.4872 38.0028 13.6204C38.0971 13.7822 39.9161 14.2201 39.9161 14.2201Z" fill="#374245"/>
<path d="M41.6773 16.1429C41.6773 16.1429 41.5925 14.62 41.4417 14.0013C41.2815 13.3731 40.7631 12.4784 40.8008 11.8026C40.8385 11.1268 41.3474 10.7176 41.4417 10.2512C41.5265 9.79429 41.6962 7.94775 42.0166 7.94775C42.3371 7.94775 42.4973 9.54681 42.6481 9.89899C42.7989 10.2512 43.0157 10.6319 43.2607 11.4219C43.5058 12.2119 43.8262 12.4023 43.7791 13.3731C43.732 14.3535 43.6566 14.8961 43.6283 15.3053C43.6 15.7146 43.6566 16.1429 43.6566 16.1429H41.6773Z" fill="#374245"/>
<path d="M41.4512 8.50942C41.4512 9.07099 41.6962 9.51835 41.9978 9.51835C42.2994 9.51835 42.5445 9.06147 42.5445 8.50942C42.5445 7.94784 42.6293 7.50049 41.9978 7.50049C41.4512 7.50049 41.4512 7.94784 41.4512 8.50942Z" fill="#374245"/>
<path d="M44.9859 4.68311H44.7031V15.9812H44.9859V4.68311Z" fill="#142023"/>
<path d="M44.8446 4.82582C44.232 4.82582 43.7324 4.28328 43.7324 3.60749C43.7324 2.9317 44.232 2.38916 44.8446 2.38916C45.4572 2.38916 45.9567 2.9317 45.9567 3.60749C45.9567 4.28328 45.4666 4.82582 44.8446 4.82582ZM44.8446 2.68422C44.3828 2.68422 44.0152 3.10303 44.0152 3.61701C44.0152 4.13099 44.3922 4.54979 44.8446 4.54979C45.3064 4.54979 45.674 4.13099 45.674 3.61701C45.674 3.10303 45.3064 2.68422 44.8446 2.68422Z" fill="#374245"/>
<path d="M44.4102 1.91329C44.4102 2.36065 44.6081 2.73186 44.8437 2.73186C45.0793 2.73186 45.2773 2.37017 45.2773 1.91329C45.2773 1.45642 45.0793 1.09473 44.8437 1.09473C44.6081 1.10424 44.4102 1.46594 44.4102 1.91329Z" fill="#374245"/>
<path d="M44.4494 1.58002C44.4494 1.58002 44.195 1.6181 44.1101 1.48484C44.0253 1.35159 44.063 0.942303 43.9216 0.913749C43.7897 0.885194 42.7529 0 42.7529 0C42.7529 0 42.4608 0.742421 42.8189 1.4087C43.1771 2.07497 43.7237 2.36052 44.4589 2.2463C45.1846 2.13208 44.4494 1.58002 44.4494 1.58002Z" fill="#374245"/>
<path d="M45.2218 1.58002C45.2218 1.58002 45.4763 1.6181 45.5611 1.48484C45.646 1.35159 45.6083 0.942303 45.7496 0.913749C45.8816 0.885194 46.9184 0 46.9184 0C46.9184 0 47.2105 0.742421 46.8524 1.4087C46.4942 2.07497 45.9476 2.36052 45.2124 2.2463C44.4961 2.13208 45.2218 1.58002 45.2218 1.58002Z" fill="#374245"/>
<path d="M44.6191 0.961569C44.6191 1.12338 44.7228 1.25663 44.8453 1.25663C44.9679 1.25663 45.0715 1.12338 45.0715 0.961569C45.0715 0.799759 44.9773 0.666504 44.8453 0.666504C44.7228 0.666504 44.6191 0.799759 44.6191 0.961569Z" fill="#374245"/>
<path d="M90 73.0332H0V80.9999H90V73.0332Z" fill="#7C563E"/>
<path d="M39.9337 12.2593C39.9337 12.2593 40.4615 13.6299 38.9347 13.4491C38.388 13.3824 37.3607 13.1254 37.2664 13.2682C37.2193 13.3539 36.8423 13.2968 36.8517 13.5918C36.8517 13.5918 37.3701 13.4586 37.6434 13.5252C37.7188 13.5442 38.3974 13.8107 38.5577 13.8583C38.7273 13.9059 38.9818 14.4009 38.9912 14.4865C39.0101 14.5722 39.0761 14.991 39.1232 15.1528C39.1703 15.3146 38.7839 16.1427 38.7839 16.1427H40.405C40.405 16.1427 40.3013 15.3146 40.405 15.1433C40.5087 14.9625 40.4615 13.8298 40.3956 13.3253C40.3107 12.7352 39.9337 12.2593 39.9337 12.2593Z" fill="#142023"/>
<path d="M37.7947 11.9738C37.6062 12.1832 37.6816 13.2588 37.8419 13.649C38.0021 14.0393 38.134 15.0958 38.1435 15.2671C38.1529 15.4289 38.0398 16.1523 38.0398 16.1523H38.4733C38.4733 16.1523 38.3885 15.3433 38.4074 15.2195C38.4262 15.1053 38.5016 14.2677 38.4733 13.9727C38.4451 13.6776 38.9352 12.9352 38.6147 12.3355C38.2848 11.7359 37.7947 11.9738 37.7947 11.9738Z" fill="#374245"/>
<path d="M37.6808 9.47079C37.7185 9.01391 37.6336 8.48089 37.6336 8.4333L36.7948 8.29053C36.7383 8.70933 36.9456 9.36609 37.0116 9.43271C37.1058 9.53741 37.2849 10.8414 37.087 11.1174C37.0022 11.2317 36.8891 11.3173 36.7854 11.4411C36.9645 11.3459 37.1341 11.3649 37.2849 11.5077C37.4451 11.6695 37.3038 12.2787 37.4734 12.2501C37.8127 12.193 37.8693 11.0603 37.7656 10.7653C37.6619 10.4702 37.6431 9.93718 37.6808 9.47079Z" fill="#142023"/>
<path d="M36.8807 7.85238C36.6733 7.84286 36.4377 8.04274 36.3906 8.11889C36.3434 8.19503 36.2586 9.09927 36.2869 9.26107C36.3152 9.42288 36.2869 9.75602 36.2869 9.97494C36.2869 10.1939 36.268 10.4318 36.4754 10.4318C36.6827 10.4318 36.8995 10.3652 37.0032 10.1177C37.1069 9.87976 37.1634 9.61325 37.3142 9.45144C37.465 9.28963 37.7195 8.4901 37.597 8.21407C37.4839 7.93804 37.2482 7.87142 36.8807 7.85238Z" fill="#374245"/>
<path d="M41.7993 12.8875C41.9219 12.5639 42.1952 12.3831 42.2706 12.4592C42.3837 12.5544 42.3177 13.7061 42.3177 14.201C42.3177 14.5247 42.4402 14.9815 42.5439 15.4099C42.6382 15.8001 42.7136 16.1808 42.7136 16.1808L41.9973 16.1428V15.7049C41.9973 15.7049 42.0821 14.7341 41.9973 14.3724C41.9219 14.0202 41.7145 13.1255 41.7993 12.8875Z" fill="#142023"/>
<path d="M50.0091 14.2201C50.0091 14.2201 49.3117 14.0773 49.585 13.0493C49.8583 12.0214 51.1307 11.2313 51.2909 10.8792C51.4606 10.527 52.0261 8.09986 52.7424 7.95708C53.4587 7.82383 53.0063 9.32771 52.912 9.43241C52.8178 9.53711 52.6387 10.8411 52.8366 11.1171C53.0346 11.3932 53.3927 11.4407 53.3079 12.3355C53.2608 12.8685 53.6283 13.2682 53.6283 13.3444C53.6283 13.4301 53.4775 15.21 53.3833 15.3432C53.289 15.4765 53.0911 15.9143 53.0911 15.9143L52.8178 15.3432L53.1382 15.0672C53.1382 15.0672 53.2702 13.7346 53.0723 13.5728C52.8743 13.411 52.0072 13.4872 51.9224 13.6204C51.8376 13.7822 50.0091 14.2201 50.0091 14.2201Z" fill="#374245"/>
<path d="M48.2568 16.1429C48.2568 16.1429 48.3417 14.62 48.4925 14.0013C48.6527 13.3731 49.1711 12.4784 49.1334 11.8026C49.0957 11.1268 48.5867 10.7176 48.4925 10.2512C48.4076 9.79429 48.238 7.94775 47.9175 7.94775C47.5971 7.94775 47.4369 9.54681 47.2861 9.89899C47.1352 10.2512 46.9185 10.6319 46.6734 11.4219C46.4284 12.2119 46.1079 12.4023 46.155 13.3731C46.2022 14.3535 46.2776 14.8961 46.3058 15.3053C46.3341 15.7146 46.2776 16.1429 46.2776 16.1429H48.2568Z" fill="#374245"/>
<path d="M48.4741 8.50942C48.4741 9.07099 48.229 9.51835 47.9274 9.51835C47.6258 9.51835 47.3808 9.06147 47.3808 8.50942C47.3808 7.94784 47.2959 7.50049 47.9274 7.50049C48.4741 7.50049 48.4741 7.94784 48.4741 8.50942Z" fill="#374245"/>
<path d="M50.0006 12.2593C50.0006 12.2593 49.4728 13.6299 50.9997 13.4491C51.5463 13.3824 52.5736 13.1254 52.6679 13.2682C52.715 13.3539 53.092 13.2968 53.0826 13.5918C53.0826 13.5918 52.5642 13.4586 52.2909 13.5252C52.2155 13.5442 51.5369 13.8107 51.3767 13.8583C51.207 13.9059 50.9525 14.4009 50.9431 14.4865C50.9243 14.5722 50.8583 14.991 50.8112 15.1528C50.764 15.3146 51.1505 16.1427 51.1505 16.1427H49.5294C49.5294 16.1427 49.633 15.3146 49.5294 15.1433C49.4257 14.972 49.4728 13.8298 49.5388 13.3253C49.6142 12.7352 50.0006 12.2593 50.0006 12.2593Z" fill="#142023"/>
<path d="M52.1306 11.9738C52.3191 12.1832 52.2437 13.2588 52.0835 13.649C51.9233 14.0393 51.7913 15.0958 51.7819 15.2671C51.7725 15.4289 51.8856 16.1523 51.8856 16.1523H51.4614C51.4614 16.1523 51.5463 15.3433 51.5274 15.2195C51.5086 15.1053 51.4332 14.2677 51.4614 13.9727C51.4897 13.6776 50.9996 12.9352 51.3201 12.3355C51.6499 11.7359 52.1306 11.9738 52.1306 11.9738Z" fill="#374245"/>
<path d="M52.2429 9.47079C52.2052 9.01391 52.2901 8.48089 52.2901 8.4333L53.1289 8.29053C53.1854 8.70933 52.9781 9.36609 52.9121 9.43271C52.8179 9.53741 52.6388 10.8414 52.8367 11.1174C52.9215 11.2317 53.0346 11.3173 53.1383 11.4411C52.9592 11.3459 52.7896 11.3649 52.6388 11.5077C52.4786 11.6695 52.6199 12.2787 52.4503 12.2501C52.111 12.193 52.0544 11.0603 52.1581 10.7653C52.2618 10.4702 52.2806 9.93718 52.2429 9.47079Z" fill="#142023"/>
<path d="M53.0436 7.85238C53.2509 7.84286 53.4865 8.04274 53.5337 8.11889C53.5808 8.19503 53.6656 9.09927 53.6373 9.26107C53.6091 9.42288 53.6373 9.75602 53.6373 9.97494C53.6373 10.1939 53.6562 10.4318 53.4488 10.4318C53.2415 10.4318 53.0247 10.3652 52.921 10.1177C52.8174 9.87976 52.7608 9.61325 52.61 9.45144C52.4592 9.28963 52.2047 8.4901 52.3273 8.21407C52.4404 7.93804 52.676 7.87142 53.0436 7.85238Z" fill="#374245"/>
<path d="M48.1252 12.8875C48.0026 12.5639 47.7293 12.3831 47.6539 12.4592C47.5408 12.5544 47.6068 13.7061 47.6068 14.201C47.6068 14.5247 47.4843 14.9815 47.3806 15.4099C47.2863 15.8001 47.2109 16.1808 47.2109 16.1808L47.9272 16.1428V15.7049C47.9272 15.7049 47.8424 14.7341 47.9272 14.3724C48.0121 14.0202 48.21 13.1255 48.1252 12.8875Z" fill="#142023"/>
<path d="M44.9862 19.2173H44.7694H33.9023V25.0805H44.7694H44.9862H55.8533V19.2173H44.9862Z" fill="#B0865D"/>
<path d="M54.9191 20.1689H34.8438V24.1285H54.9191V20.1689Z" fill="#BC9875"/>
<path d="M44.8636 17.4185H44.2227V18.7796H44.8636V17.4185Z" fill="#B0865D"/>
<path d="M45.7581 17.4185H45.1172V18.7796H45.7581V17.4185Z" fill="#B0865D"/>
<path d="M3.32617 27.5836V27.1934H86.427V27.8787L3.32617 27.5836Z" fill="#CCC1B9"/>
<path d="M55.8535 18.5317L66.9563 25.0803H55.8535V18.5317Z" fill="#CCC1B9"/>
<path d="M5.55078 35.7505H10.0748L10.0842 71.4343H9.11346C9.11346 71.4343 9.36794 39.0533 8.84956 37.8064C8.20865 36.293 5.55078 35.7505 5.55078 35.7505Z" fill="#DFD8D3"/>
<path d="M20.3672 35.7505H24.8912L24.9006 71.4343H23.9393C23.9393 71.4343 24.1938 39.0533 23.6754 37.8064C23.0345 36.293 20.3672 35.7505 20.3672 35.7505Z" fill="#DFD8D3"/>
<path d="M35.1934 35.7505H39.7174L39.7268 71.4343H38.7655C38.7655 71.4343 39.0199 39.0533 38.5016 37.8064C37.8607 36.293 35.1934 35.7505 35.1934 35.7505Z" fill="#DFD8D3"/>
<path d="M50.0195 35.7505H54.5436L54.553 71.4343H53.5916C53.5916 71.4343 53.8461 39.0533 53.3277 37.8064C52.6868 36.293 50.0195 35.7505 50.0195 35.7505Z" fill="#DFD8D3"/>
<path d="M64.8438 35.7505H69.3678L69.3772 71.4343H68.4159C68.4159 71.4343 68.6703 39.0533 68.152 37.8064C67.5016 36.293 64.8438 35.7505 64.8438 35.7505Z" fill="#DFD8D3"/>
<path d="M79.6699 35.7505H84.194L84.2034 71.4343H83.242C83.242 71.4343 83.4965 39.0533 82.9781 37.8064C82.3278 36.293 79.6699 35.7505 79.6699 35.7505Z" fill="#DFD8D3"/>
<path d="M0 80.9999H90V73.0332L0 80.9999Z" fill="#7C563E"/>
</g>
<defs>
<clipPath id="clip0_501_3053">
<rect width="90" height="81" fill="white"/>
</clipPath>
</defs>
</svg>
