<svg xmlns="http://www.w3.org/2000/svg" width="50" height="110" fill="none"><g clip-path="url(#a)"><path fill="#FFC000" d="M24.73 0a.2.2 0 0 0-.2.2v6.98a.2.2 0 1 0 .4 0V.2a.2.2 0 0 0-.2-.2Z"/><path fill="#FFD143" d="m24.73 0-.06.01c.12.1.2.34.19.55-.02.54 0 3.81-.07 5.08-.02.25-.18.23-.26.22v1.31a.2.2 0 1 0 .4 0V.2a.2.2 0 0 0-.2-.2Z"/><path fill="#FFD143" d="M27.27 7.38h-4.96v2.6h4.96v-2.6Z"/><path fill="#FFC000" d="M26.95 7.5a3.97 3.97 0 0 1-2.84 1.02c-.63 0-1.2.1-1.8 0v1.45h4.96V7.38h-.22l-.1.11ZM28.77 49.6l-.04-.04a379.92 379.92 0 0 1-2.08-36.84v-.26h-3.77v.26c-.3 31.45-4.1 51.58-4.14 51.78l.42.12.09-.46 2.03-1.58 1.62 1.59-.03.37.43.04.03-.48 1.44-1.61 1.42 1.7.02.39.43-.05-.02-.27 1.68-1.73 1.96 1.57.1.52.42-.12c-.02-.1-1.03-5.45-2.05-14.86l.04-.04Zm-.12 3.1-1.21-1.32.92-1.23.29 2.55Zm-.77 5.8-1.33-1.25H29l-1.13 1.25Zm.01.49 1.5 1.41H26.6L27.9 59Zm-1.44-2.2 1.11-1.43 1.42 1.44h-2.53Zm1.09-1.93-1.28-1.3h2.28l-1 1.3Zm-1.39-1.76 1.1-1.48 1.35 1.48h-2.45Zm-5.57 3.7 1.4-1.46 1.14 1.46h-2.54Zm2.57.45-1.39 1.26-1.19-1.26h2.58ZM21 53.56h2.23L22 54.84l-1-1.28Zm.01-.46 1.28-1.47 1.05 1.47H21Zm3.46-37.18-.57 1.2-.5-1.2h1.07Zm-1.16-.47.58-1.11.57 1.11H23.3Zm2.32 1.71-.59-1.25h1.14l-.55 1.25Zm0 .37.56 1.2h-1.1l.54-1.2Zm-.66-2.08.62-1.15.66 1.15h-1.28Zm.57 1.9-.6 1.35-.02-2.67.62 1.32Zm-.6 1.84h.01Zm1.02 30.19.98-1.5 1.24 1.5h-2.22Zm2.26.46-.99 1.31-1.2-1.3h2.19Zm-4.38 6.96.93-1.5.95 1.5h-1.88Zm1.84.45-.86 1.13-.8-1.13h1.66Zm-1.3-15.58.35-1.56.34 1.59v.15h-.7v-.18Zm-.54-17 .58-1.15-.04 2.38-.54-1.23Zm1.25 17.64v.07l-.36 1.08-.37-1.08v-.07h.73Zm.02.59.08 1.92-.36-1.07.28-.85Zm-.38 1.14.5 1.44v.15h-1v-.15l.5-1.44Zm.54 2.6.08 1.9-.45-1.04.37-.86Zm-.53.5-.47-1.05h.92l-.45 1.05Zm-.16.37-.47 1.1.09-1.99.38.89Zm.16.36.65 1.47v.04h-1.3l.65-1.5Zm.7 2.42.1 2.24-.64-1.24.54-1Zm-.04-11.35.88 1.24-.79 1.35-.1-2.59Zm.13 3.67.98 1.28-.87 1.4-.1-2.68Zm-.19 7.23-.6 1.14-.6-1.14h1.2Zm.17 3.26h-1.57l.8-1.5.77 1.5Zm-.05.46-.7 1.13-.73-1.13h1.43ZM24.57 55l-.81 1.32.12-2.4.69 1.08Zm.38 0 .66-1.07.12 2.28-.78-1.21Zm.74-8.62 1.05 1.26-.93 1.44-.12-2.7Zm1.22 1-1.07-1.3h1.91l-.84 1.3Zm-1.17-1.76.94-1.51 1.15 1.51h-2.09Zm.92-1.97-1.02-1.34h1.85l-.83 1.34Zm-1.1-1.8.86-1.48 1.06 1.48h-1.92Zm.85-1.88-.95-1.32h1.72l-.77 1.32Zm-1.04-1.99-.1-3.06.88 1.43-.78 1.63Zm-.13-4.18-.08-2.73.79 1.33-.71 1.4Zm-.1-3.54.75-1.55.8 1.55h-1.55Zm-.01-.41-.06-2.76.72 1.4-.66 1.36Zm-.09-3.8L25 23.4l.65 1.33-.6 1.31Zm.72-1.1.7 1.43H25.1l.66-1.43Zm0-.44-.68-1.39h1.32l-.64 1.39Zm-.71-1.85.67-1.58.7 1.58h-1.37Zm-.07-.24-.03-3.05.68 1.52-.65 1.53Zm-.01 16.62.07 1.95-.25-1.17.18-.78Zm-.23.5-.19-.89h.38l-.2.88Zm-.07.28L24.41 41l.07-2.1.2.92Zm-.24-17.78-.48-1.2.5-1.13c0 .78 0 1.56-.02 2.33Zm.04-3.56-.5-1.18.52-1.07-.02 2.25Zm-.06.25H23.3l.6-1.25.52 1.25Zm.06.46v.14l-.6 1.31-.57-1.45h1.17Zm-.04 3.25v.22h-1.3l.74-1.63.56 1.4Zm-.03.68-.66 1.32-.58-1.32h1.24Zm-.03 3.23v.03H23l.73-1.48.64 1.45Zm-.03 16.55.29.85-.36 1.07.07-1.92Zm-.04-13.08-.63-1.38.68-1.34-.05 2.72Zm-.1 4.11-.65-1.52.71-1.3-.07 2.82Zm-.75-1.75-.62-1.46h1.43l-.8 1.46Zm.63 1.97H22.6l.83-1.53.65 1.53Zm.07.45-.87 1.5-.7-1.5h1.57Zm.01.36-.08 2.82-.7-1.47.78-1.35Zm.41 16.33-.62 1.18.1-2.19.52 1.01Zm-.61-9.77-.78-1.33.86-1.24-.08 2.57Zm-.9-1.54-.77-1.33H24l-.93 1.33Zm.83 1.87h-1.85l1-1.46.85 1.46Zm-.07.46-1 1.31-.79-1.31h1.79Zm.1.3-.1 2.67-.85-1.42.95-1.25Zm-.25 6.23-.85-1.25.95-1.19-.1 2.44Zm-1.03-1.52-.84-1.23h1.83l-.99 1.23Zm1.01 2.02v.04h-2.3c.22-.24.6-.7 1.28-1.55l1.02 1.51Zm-.2.5-1.14 1.3-.93-1.3h2.07Zm-.96 1.56 1.13-1.28-.13 2.68-1-1.4Zm1.21 5.98.91 1.28-1.05 1.38c.05-.8.1-1.69.14-2.66Zm1.11 1.56 1.03 1.46H23.7l1.11-1.46Zm.2-.27.8-1.04.13 2.34-.92-1.3Zm.85-8.57 1.19 1.3-1.06 1.42c-.05-.87-.1-1.78-.13-2.72Zm2.37-1.14-1.12-1.34.85-1.31.27 2.65Zm-.37-3.73-1.04-1.36.8-1.28.24 2.64Zm-.33-3.7-.98-1.37.77-1.3.21 2.67Zm-.26-3.34h-1.8l.8-1.65 1 1.63v.02Zm-.03-.44-.87-1.41.68-1.39c.05.95.12 1.89.19 2.8Zm-.99-1.6-.95-1.55H27l-.75 1.55Zm-.98-2 .79-1.55.9 1.55h-1.69Zm1.7-.39-.8-1.36.64-1.28.16 2.64Zm-.18-3.02-.74 1.46-.87-1.48h1.61v.02Zm-.04-.79-.76-1.46.62-1.28.14 2.74Zm-.86-1.67-.74-1.43h1.43l-.7 1.43Zm.68-2.12-.71-1.43.6-1.3.1 2.73Zm-.15-3.87-.63-1.4.55-1.3.08 2.7Zm-.09-3.06-.62 1.47-.67-1.5h1.29v.03Zm-.01-.6-.6-1.28.54-1.25.06 2.54Zm-.07-3.48-.57-1.01.54-1.02c0 .68.02 1.36.03 2.03Zm-.12-2.17-.54 1-.58-1h1.12Zm-.63 1.16-.58 1.09v-2.1l.58 1.01Zm-.8 16.58h.02l.1 3.42h-.2l.08-3.42Zm-.1 3.88h.23l.12 3.59h-.45l.1-3.59Zm-.1-19.42-.52-1 .51-1v2Zm-.08-2.2L23.9 14l-.52-1.02h1.05Zm-1.12.2.5.99-.52 1.02.02-2.02Zm-.04 2.81.55 1.3-.6 1.26.05-2.56Zm-.07 3.2h.02l-.02.01v-.01Zm0 .14.6 1.5-.69 1.52.1-3.02Zm-.12 4.04.56 1.3-.67 1.34.1-2.64Zm1.2 3.47-.7 1.38-.63-1.38h1.33Zm-1.36.4.55 1.2-.67 1.3.12-2.5Zm-.15 2.96.8-1.55.73 1.6h-1.53v-.05Zm-.03.74.61 1.46-.78 1.41.17-2.87Zm-.24 3.93.67 1.42-.87 1.5.2-2.92Zm.78 1.64.8 1.68h-1.79l.99-1.68Zm-1.07 2.42.73 1.25-.93 1.34.2-2.59Zm-.3 3.67.75 1.24-.97 1.28.23-2.52Zm-.27 3.02 1.17-1.54.92 1.55h-2.09Zm-.06.65.88 1.3-1.15 1.4.27-2.7Zm-.4 3.8.94 1.3-1.25 1.43.32-2.72Zm-.42 3.7 1.02 1.3-1.36 1.42.34-2.71Zm-.47 3.66 1.23 1.3-1.62 1.47.4-2.77Zm-.94 6.22c.1-.59.25-1.46.41-2.57l1.28 1.25-1.69 1.32Zm.68-2.79h2.9l-1.62 1.26-1.28-1.26Zm2.9 2.87-1.37-1.36 1.52-1.19-.14 2.55Zm-2.75-3.33 1.57-1.42 1.35 1.42h-2.92Zm2.97-.44-1.15-1.2 1.28-1.15-.13 2.35Zm.18-3.44L22.2 55.1l1.24-1.29c-.04.95-.1 1.85-.13 2.7Zm.05 7.04.15-2.59 1.04 1.26-1.2 1.33Zm.49-2.7h1.92l-1 1.12-.92-1.12Zm1.13 1.38 1-1.13.16 2.53-1.16-1.4Zm1.2-5.64c-.06-.87-.1-1.8-.15-2.78l1.3 1.3-1.16 1.48Zm.03.81 1.43 1.34-1.27 1.4-.16-2.74Zm.38 6.4-.17-2.78 1.62 1.3-1.45 1.49Zm1.69-1.73-1.52-1.22h2.7l-1.18 1.22Zm1.9 1.51-1.64-1.3 1.22-1.26c.17 1.1.3 1.96.41 2.56Zm-.55-3.43-1.52-1.43 1.13-1.25.39 2.68Zm-.86-6.37.33 2.66-1.34-1.36 1-1.3Z"/><path fill="#FFC000" d="M40.9 98.52a133.43 133.43 0 0 1-4-10.13l-.05-.19h-.03v-4.35h-1l-.07-.23c-1.62-5.97-4.21-16.92-4.24-17.03v-1.45h.46v-.58c-2.05.39-4.13.42-6.21.3-2.7.3-5.41.38-8.14-.12v.4h.63v1.73h.03a769.2 769.2 0 0 1-4.17 16.74l-.06.24h-.93v4.4l-.04.14c-.02.03-1.19 3.6-4 10.12-2.5 5.82-5.43 10.97-5.46 11.03l-.27.45h11.52l-.04-.33c0-.04-.42-4.16 1.31-8.23l-.03-.02v-.01l.04.02c.02-.06 2.52-6.28 8.84-6.34 6.33.06 8.82 6.28 8.85 6.34l.03-.02-.03.03a18.6 18.6 0 0 1 1.31 8.23l-.04.34h11.52l-.26-.46c-.04-.05-2.97-5.2-5.47-11.02Zm-.45.27c.25.59.5 1.17.77 1.73l-4.16-2.8 1.89-2.52c.43 1.07.93 2.27 1.5 3.59ZM31.8 80.4l-2.78-2.22h4.55L31.8 80.4Zm.05.6 3.05 2.45h-4.99L31.86 81Zm-2.77-3.29 1.8-2.04 2.7 2.04h-4.5Zm1.76-2.62-2.23-1.69h3.72l-1.5 1.69Zm-2.3-2.15 1.53-1.32 2.03 1.32h-3.56Zm1.5-1.86-2-1.3 3.48.02-1.48 1.28Zm-2.26-2.2 1.57-.84 1.96.84h-3.53Zm1.91 2.5-1.67 1.44-.4-2.8 2.07 1.35Zm.86 4.04-1.84 2.07c-.2-1.25-.39-2.59-.58-3.9l2.42 1.83Zm.97 5.32L29.6 83.2c-.13-.78-.4-2.49-.7-4.57l2.64 2.12Zm-1.61 7.75-1.88 2.28-2.55-2.28h4.43Zm.24.56c.18.74.57 2.34 1.27 4.74l-2.99-2.66 1.72-2.08Zm.55.08 3.3 2.38-1.96 2.58a99.24 99.24 0 0 1-1.34-4.96Zm3.75 2.7 3.7 2.65h-5.73l2.03-2.66Zm3.9 3.24-1.74 2.33-3.45-2.33h5.19Zm-1.64 3.1 4.2 2.83h-6.31l2.11-2.84Zm4.49 3.42-1.51 3.16-4.44-3.16h5.95Zm-2.74-7.58-3.67-2.63 1.78-2.34c.27.75.87 2.43 1.89 4.97ZM36.1 88.8l-1.74 2.27-3.17-2.27h4.91Zm-.9-5.68-3.07-2.45 1.84-2.3c.43 1.69.84 3.33 1.22 4.75Zm-1.5-5.87-2.51-1.9 1.59-1.79.91 3.7Zm-1.13-4.53-2.14-1.39 1.5-1.29c.18.8.4 1.7.64 2.68Zm-.98-4.06-1.87-.8 1.49-.8c.07.33.2.89.38 1.6Zm-.72-1.77-1.53.8-1.91-.8h3.44Zm-1.9 1-1.53.82-.2-1.56 1.74.74Zm-1.9.94-1.8-.9 1.57-.82c.06.5.13 1.1.22 1.72Zm-.6.06H23.4l1.52-.78 1.56.78Zm.13-2.01-1.69.87-1.71-.87h3.4Zm-3.59.26 1.56.79-1.78.9.22-1.69ZM9.06 101.01l4.2-2.84 2.11 2.84h-6.3Zm5.66.59-4.45 3.16-1.5-3.16h5.95Zm-3.1-6.52h5.19l-3.45 2.33-1.74-2.33Zm.2-.59 3.7-2.66 2.03 2.66h-5.73Zm4.14-2.97 3.31-2.38c-.2.87-.63 2.53-1.35 4.95l-1.96-2.57Zm5.84-21.73-2 1.3-1.48-1.28 3.48-.02Zm-3.27-.9 1.93-.83 1.54.83h-3.47Zm2.76 4.06h-3.56l2.03-1.32 1.53 1.32Zm-.07.46L19 75.1l-1.5-1.69h3.72Zm-.46 4.31h-4.5l2.7-2.04 1.8 2.04Zm.06.46-2.78 2.23-1.77-2.23h4.55Zm-.9 5.28h-4.99L17.98 81l1.95 2.45Zm-.07 5.44 1.82 2.22-3.15 2.77a85.8 85.8 0 0 0 1.33-4.99Zm.37-.4h4.43l-2.57 2.26-1.86-2.26Zm-1.9-7.75 2.64-2.12-.7 4.57-1.95-2.45Zm.97-5.32 2.42-1.83-.59 3.9-1.83-2.07Zm.86-4.05 2.07-1.34c-.12.88-.25 1.83-.4 2.8l-1.67-1.46Zm.69-3.47 1.76-.75-.2 1.58-1.56-.83Zm1.58-1.02-1.94.82-1.55-.82h3.49Zm-3.79.2 1.47.78-1.84.79.37-1.58Zm-.7 2.95 1.49 1.3-2.15 1.38.65-2.68Zm-.86 3.52 1.59 1.8-2.5 1.89c.31-1.25.62-2.5.9-3.7Zm-1.2 4.8 1.84 2.31-3.06 2.45c.38-1.42.8-3.06 1.23-4.75Zm2.91 10.44-3.17 2.27-1.73-2.27h4.9Zm-5.39.25 1.79 2.34-3.67 2.63a121.5 121.5 0 0 0 1.88-4.97ZM9.53 98.8c.57-1.32 1.06-2.52 1.5-3.6l1.88 2.52-4.15 2.82.77-1.74Zm-1.3 2.89 1.61 3.4-5.2 3.7c.76-1.4 2.15-4.03 3.58-7.1Zm-3.5 7.73 5.36-3.82 1.82 3.82H4.73Zm9.57 0h-1.52c.32-.63.92-1.89 1.68-3.72-.24 1.73-.2 3.1-.16 3.72Zm-1.95-.3-1.83-3.83 4.9-3.49a71.02 71.02 0 0 1-3.07 7.32Zm3.47-8.41-2.12-2.83 3.88-2.62a165.5 165.5 0 0 1-1.76 5.45Zm1.12-1.73c.47-1.44.88-2.74 1.23-3.89h3.6a10.67 10.67 0 0 0-4.83 3.9Zm1.74-4.48 3.35-2.94 2.43 2.94h-5.78Zm6.14-.42-2.39-2.88 2.39-2.1v4.98Zm-4.26-10.21.01-.13c.02-.1 1.32-8.43 2.09-13.95l2.26-.02 2.27.02c.77 5.52 2.06 13.85 2.08 13.95l.02.13h-8.73Zm4.76 5.24 2.37 2.11-2.37 2.87V89.1Zm2.77 2.47 3.27 2.92h-5.68l2.41-2.92Zm.12 3.51h3.6c.35 1.15.75 2.45 1.23 3.9a10.67 10.67 0 0 0-4.83-3.9ZM33.6 99c-.46-1.38-.85-2.63-1.2-3.75l3.89 2.62-2.12 2.83-.57-1.7Zm2.08 10.4c.04-.6.08-1.98-.16-3.71a58.7 58.7 0 0 0 1.68 3.72h-1.52Zm-1.12-7.6 4.9 3.48-1.82 3.83a69.93 69.93 0 0 1-3.08-7.32Zm3.52 7.6 1.82-3.8 5.36 3.8h-7.18Zm2.06-4.33 1.62-3.4a134.2 134.2 0 0 0 3.59 7.11l-5.2-3.7Z"/><path fill="#FFC000" d="m31.86 69.8.02.04-.01-.03h-.01ZM17.97 69.84l.02-.03h-.01v.03Z"/><path fill="#FFD143" d="M25.38 88.13h-.58v6.6h.58v-6.6ZM11.23 88.35c-.01.04-1.36 3.6-4.62 10.13a118.63 118.63 0 0 1-6.3 11.01l-.31.47h10.54l.1-.14c.01-.04 2.4-3.9 4.97-10.65 2.63-6.91 3.53-10.6 3.54-10.64l.09-.37H11.3l-.08.19Zm7.26.4a109.5 109.5 0 0 1-3.42 10.2 69.53 69.53 0 0 1-4.85 10.41H1.1a133.26 133.26 0 0 0 10.62-20.61h6.78ZM27.36 66.67l-.12.3 5.73 2.12.11-.3-5.72-2.12Z"/><path fill="#FFD143" d="m32.15 66.67-4.54 2.1.13.3 4.55-2.1-.14-.3Z"/><path fill="#FFD143" d="m22.58 66.68-.12.3 5.15 2.26.13-.3-5.16-2.26Z"/><path fill="#FFD143" d="m27.2 66.68-5.05 2.26.13.3 5.05-2.26-.13-.3Z"/><path fill="#FFD143" d="m32.53 66.54-.04-.17h-5.45l.03.27c.64 4.6 2.85 16.92 2.88 17.04l.03.2h7.54l-.1-.3a663.96 663.96 0 0 1-4.89-17.04Zm-2.17 16.87a668.83 668.83 0 0 1-2.8-16.57h4.58c.38 1.39 3.01 10.96 4.76 16.57h-6.54Z"/><path fill="#FFD143" d="m33.86 73.01-4.67 4.56.31.33 4.67-4.56-.31-.33Z"/><path fill="#FFD143" d="m28.55 72.94-.25.4 7.02 4.6.24-.4-7.01-4.6Z"/><path fill="#FFD143" d="m32.8 69.58-4.5 3.37.27.37 4.5-3.37-.27-.37Z"/><path fill="#FFD143" d="m27.91 69.4-.21.4 6.2 3.48.22-.4-6.2-3.49Z"/><path fill="#FFD143" d="M34.17 72.9h-5.74v.47h5.74v-.46ZM35.57 77.68h-6.41v.46h6.41v-.46Z"/><path fill="#FFD143" d="M35.28 77.75 30 83.48l.33.32 5.28-5.73-.33-.32Z"/><path fill="#FFD143" d="m29.06 78.28 8.02 5.56.25-.39-8.02-5.56-.25.39Z"/><path fill="#FFC000" d="M24.53 68.85v.86l8.88.06-.25-.92h-8.63Z"/><path fill="#FFD143" d="M17.32 66.54c-.03.1-3.03 11.06-4.9 17.03l-.09.3h7.54l.03-.19c.03-.12 2.24-12.44 2.88-17.05l.03-.26h-5.44l-.05.17Zm4.97.3c-.63 4.45-2.53 15.02-2.8 16.57h-6.53a698.44 698.44 0 0 0 4.76-16.57h4.57Z"/><path fill="#FFD143" d="m16 73.01-.32.33 4.67 4.56.3-.33L16 73.01Z"/><path fill="#FFD143" d="m21.3 72.95-7.02 4.59.24.39 7.02-4.6-.24-.38Z"/><path fill="#FFD143" d="m17.05 69.58-.27.37 4.5 3.38.28-.38-4.5-3.37Z"/><path fill="#FFD143" d="m21.93 69.39-6.2 3.5.22.4 6.2-3.5-.22-.4Z"/><path fill="#FFD143" d="M21.42 72.9h-5.74v.47h5.74v-.46ZM20.7 77.68h-6.43v.46h6.43v-.46Z"/><path fill="#FFD143" d="m14.57 77.75-.33.32 5.27 5.73.33-.3-5.27-5.75Z"/><path fill="#FFD143" d="m20.53 77.89-8.02 5.56.26.38 8.02-5.56-.26-.38ZM17.04 94.45H8.9v.59h8.13v-.6Z"/><path fill="#FFD143" d="m11.73 88.26-.44.39 5.35 6.06.44-.4-5.35-6.05Z"/><path fill="#FFD143" d="M18.7 88.2 8.6 94.5l.3.5 10.12-6.28-.3-.5Z"/><path fill="#FFD143" d="m19.3 88.25-.43.4 5.92 6.22.41-.41-5.9-6.21Z"/><path fill="#FFD143" d="m24.92 88.21-7.98 6.08.35.47 7.98-6.07-.35-.48ZM30.9 88.24l-5.91 6.21.42.41 5.9-6.2-.41-.42Z"/><path fill="#FFD143" d="m25.27 88.21-.35.48 7.86 6.07.36-.47-7.87-6.08ZM14.51 100.96h-9v.6h9v-.6Z"/><path fill="#FFD143" d="m9.13 94.55-.44.39 5.42 6.28.44-.39-5.42-6.28Z"/><path fill="#FFD143" d="M16.5 94.5 5.34 101l.3.51 11.13-6.5-.29-.51Z"/><path fill="#FFD143" d="m6.02 101.11-.51.3 4.62 8.4.5-.3-4.61-8.4Z"/><path fill="#FFD143" d="M14.02 100.99.4 109.42l.3.5 13.62-8.43-.3-.5ZM43.38 98.48a125.28 125.28 0 0 1-4.62-10.13l-.07-.2h-7.93l.1.38c0 .04.9 3.73 3.53 10.64a67.84 67.84 0 0 0 4.98 10.65l.08.14H50l-.3-.47c-.04-.05-3.42-5.2-6.32-11.01Zm-3.6 10.88a69.82 69.82 0 0 1-4.85-10.41 110 110 0 0 1-3.42-10.2h6.79a132.3 132.3 0 0 0 10.62 20.61h-9.14Z"/><path fill="#FFD143" d="M41.09 94.45h-8.13v.59h8.13v-.6Z"/><path fill="#FFD143" d="m38.27 88.26-5.35 6.06.44.4 5.35-6.07-.44-.4Z"/><path fill="#FFD143" d="m31.3 88.2-.31.5L41.1 95l.3-.5-10.12-6.3ZM44.5 100.96h-9.02v.6h9.01v-.6Z"/><path fill="#FFD143" d="m40.87 94.56-5.43 6.27.43.39 5.44-6.27-.44-.4Z"/><path fill="#FFD143" d="m33.5 94.49-.28.51 11.13 6.52.3-.52L33.5 94.5Z"/><path fill="#FFD143" d="m43.98 101.11-4.61 8.41.5.29 4.62-8.41-.5-.29Z"/><path fill="#FFD143" d="m35.97 101-.3.51 13.63 8.4.3-.5-13.63-8.4ZM22.47 66.68l-5.73 2.12.1.3 5.74-2.1-.11-.32Z"/><path fill="#FFD143" d="m17.66 66.68-.13.3 4.54 2.1.14-.3-4.55-2.1ZM33.07 64.12H16.48v.97h16.59v-.97Z"/><path fill="#FFD143" d="M32.53 65.1H17.2v1.73h15.32V65.1Z"/><path fill="#FFC000" d="M17.21 66.83h.39l.75-1.16 14.18-.21v-.36H17.2v1.73Z"/><path fill="#FFD143" d="M38.66 83.81H11.28v2.32h27.38v-2.32ZM38.66 86.13H11.28v2.33h27.38v-2.33Z"/><path fill="#FFC000" d="m16.43 69.77 8.89-.06v-.86h-8.63l-.26.92ZM11.63 85.96h.34l.85-1.04 25.4-.58v-.2H11.64v1.82ZM11.63 88.13h.34l.85-1.04 25.4-.6v-.19H11.64v1.83ZM38.66 85.96H11.28v.34h27.38v-.34Z"/><path fill="#FFD143" d="M33.36 94.45H16.64v.59h16.72v-.6Z"/><path fill="#FFD143" d="m14.25 101.14.53.24c.03-.06 2.93-6.34 10.32-6.34v-.6c-7.77 0-10.82 6.63-10.85 6.7Z"/><path fill="#FFD143" d="M24.9 94.45v.59c7.39 0 10.29 6.28 10.31 6.34l.54-.24c-.03-.07-3.08-6.7-10.85-6.7ZM14.26 101.13a16.75 16.75 0 0 0-1.6 8.24h-2.28v.59h2.93l-.04-.34c0-.04-.5-4.16 1.51-8.23l-.52-.27Z"/><path fill="#FFD143" d="m35.74 101.13-.52.26c2 4.07 1.52 8.2 1.51 8.24l-.04.33h2.92v-.59h-2.27c.09-1.1.17-4.65-1.6-8.25ZM29.54 49.6l-.04-.04a320.82 320.82 0 0 1-2.47-36.84v-.26h-4.47v.26c-.36 31.45-4.85 51.58-4.9 51.78l.5.12.1-.46 2.4-1.58 1.93 1.59-.03.37.51.04.03-.48 1.7-1.61 1.7 1.7.02.39.5-.05-.01-.27 2-1.73 2.32 1.57.1.52.5-.12c-.02-.1-1.22-5.45-2.42-14.86l.03-.04Zm-.14 3.1-1.43-1.32 1.09-1.23.34 2.55Zm-.91 5.8-1.58-1.25h2.92L28.5 58.5Zm.02.49 1.78 1.41h-3.31L28.5 59Zm-1.72-2.2 1.32-1.43 1.69 1.44h-3Zm1.3-1.93-1.53-1.3h2.72l-1.2 1.3Zm-1.65-1.76 1.3-1.48 1.6 1.48h-2.9Zm-6.6 3.7 1.66-1.46 1.35 1.46h-3.02Zm3.04.45-1.64 1.26-1.41-1.26h3.05Zm-2.55-3.69h2.65l-1.46 1.28-1.19-1.28Zm.02-.46 1.51-1.47 1.25 1.47h-2.76Zm4.09-37.18-.68 1.2-.6-1.2h1.28Zm-1.36-.47.68-1.11.67 1.11h-1.35Zm2.73 1.71-.69-1.25h1.35l-.66 1.25Zm0 .37.68 1.2h-1.3l.63-1.2Zm-.76-2.08.73-1.15.77 1.15h-1.5Zm.67 1.9-.71 1.35-.02-2.67.73 1.32Zm-.7 1.84Zm1.2 30.19 1.15-1.5 1.48 1.5h-2.64Zm2.67.46-1.17 1.31-1.42-1.3h2.59ZM23.7 56.8l1.1-1.5 1.13 1.5H23.7Zm2.18.45-1.02 1.13-.95-1.13h1.97Zm-1.54-15.58.42-1.56.4 1.59v.15h-.83l.01-.18Zm-.64-17 .68-1.15-.05 2.38-.63-1.23Zm1.48 17.64v.07l-.43 1.08-.44-1.08v-.07h.87Zm.03.59.1 1.92-.44-1.07.34-.85Zm-.46 1.14.58 1.44.01.15h-1.18l.01-.15.58-1.44Zm.64 2.6.1 1.9-.54-1.04.44-.86Zm-.62.5-.56-1.05h1.1l-.54 1.05Zm-.2.37-.55 1.1.1-1.99.46.89Zm.2.36.77 1.47v.04H24l.76-1.5Zm.82 2.42.13 2.24-.76-1.24.63-1Zm-.04-11.35 1.05 1.24-.94 1.35a2756 2756 0 0 1-.11-2.59Zm.16 3.67 1.16 1.28-1.03 1.4c-.05-.87-.1-1.77-.13-2.68Zm-.23 7.23-.72 1.14-.7-1.14h1.42Zm.2 3.26h-1.86l.94-1.5.92 1.5Zm-.06.46-.83 1.13-.87-1.13h1.7ZM24.57 55l-.97 1.32.14-2.4.83 1.08Zm.45 0 .78-1.07.14 2.28-.92-1.21Zm.87-8.62 1.25 1.26-1.1 1.44-.15-2.7Zm1.45 1-1.27-1.3h2.27l-1 1.3Zm-1.39-1.76 1.11-1.51 1.37 1.51h-2.48Zm1.1-1.97-1.22-1.34h2.2l-.99 1.34Zm-1.32-1.8 1.03-1.48 1.26 1.48h-2.29Zm1.01-1.88-1.11-1.32h2.03l-.92 1.32Zm-1.23-1.99-.12-3.06 1.05 1.43-.93 1.63Zm-.16-4.18-.09-2.73.94 1.33-.85 1.4Zm-.1-3.54.88-1.55.94 1.55h-1.82Zm-.02-.41-.08-2.76.85 1.4-.77 1.36Zm-.1-3.8-.06-2.65.78 1.33-.72 1.31Zm.85-1.1.83 1.43h-1.62l.79-1.43Zm0-.44-.81-1.39h1.57l-.77 1.39Zm-.85-1.85.8-1.58.83 1.58h-1.63Zm-.08-.24-.04-3.05.8 1.52-.76 1.53Zm-.01 16.62.08 1.95-.29-1.17.21-.78Zm-.28.5-.22-.89H25l-.24.88Zm-.07.28L24.37 41l.08-2.1.24.92Zm-.28-17.78-.58-1.2.6-1.13-.02 2.33Zm.04-3.56-.59-1.18.6-1.07-.01 2.25Zm-.07.25h-1.33l.7-1.25.63 1.25Zm.06.46v.14l-.7 1.31-.68-1.45h1.38Zm-.04 3.25v.22h-1.55l.88-1.63.67 1.4Zm-.04.68-.78 1.32-.7-1.32h1.48Zm-.04 3.23v.03H22.7l.88-1.48.75 1.45ZM24.3 42.9l.35.85-.44 1.07.1-1.92Zm-.05-13.08-.75-1.38.82-1.34-.07 2.72Zm-.12 4.11-.77-1.52.86-1.3-.1 2.82Zm-.88-1.75-.73-1.46h1.7l-.97 1.46Zm.74 1.97h-1.76l1-1.53.76 1.53Zm.1.45-1.04 1.5-.84-1.5h1.87Zm0 .36-.1 2.82-.82-1.47.93-1.35Zm.48 16.33-.74 1.18.12-2.19.62 1.01Zm-.72-9.77-.91-1.33 1.02-1.24-.11 2.57Zm-1.06-1.54-.92-1.33h2.01l-1.1 1.33Zm.98 1.87h-2.2l1.2-1.46 1 1.46Zm-.09.46-1.18 1.31-.93-1.31h2.11Zm.12.3c-.03.9-.08 1.8-.12 2.67l-1-1.42 1.12-1.25Zm-.3 6.23-1-1.25 1.13-1.19-.12 2.44Zm-1.21-1.52-1-1.23h2.17l-1.17 1.23Zm1.2 2.02v.04h-2.74c.26-.24.72-.7 1.53-1.55l1.2 1.51Zm-.24.5-1.35 1.3-1.11-1.3h2.46Zm-1.13 1.56 1.33-1.28-.15 2.68-1.18-1.4Zm1.43 5.98 1.08 1.28-1.24 1.38.16-2.66Zm1.3 1.56 1.23 1.46h-2.54l1.32-1.46Zm.26-.27.93-1.04c.06.85.1 1.63.16 2.34l-1.1-1.3Zm.99-8.57 1.41 1.3-1.25 1.42-.16-2.72Zm2.82-1.14-1.33-1.34 1-1.31.33 2.65Zm-.45-3.73-1.22-1.36.94-1.28.28 2.64Zm-.38-3.7-1.17-1.37.91-1.3.26 2.67Zm-.32-3.34h-2.12l.94-1.65 1.18 1.63v.02Zm-.03-.44-1.03-1.41.8-1.39.23 2.8Zm-1.17-1.6-1.12-1.55h2l-.88 1.55Zm-1.16-2 .93-1.55 1.08 1.55H25.4Zm2-.39-.95-1.36.77-1.28.19 2.64Zm-.2-3.02-.88 1.46-1.04-1.48h1.92v.02Zm-.05-.79-.9-1.46.74-1.28.16 2.74Zm-1.02-1.67-.87-1.43h1.7l-.83 1.43Zm.8-2.12-.83-1.43.71-1.3.13 2.73Zm-.17-3.87L26 20.9l.65-1.3.1 2.7Zm-.1-3.06-.74 1.47-.8-1.5h1.53v.03Zm-.02-.6-.72-1.28.65-1.25.07 2.54Zm-.08-3.48-.68-1.01.65-1.02c0 .68.01 1.36.03 2.03Zm-.15-2.17-.64 1-.68-1h1.32Zm-.74 1.16-.69 1.09v-2.1l.69 1.01Zm-.95 16.58h.02l.11 3.42h-.23l.1-3.42Zm-.11 3.88h.26l.14 3.59h-.53l.13-3.59Zm-.14-19.42-.6-1 .6-1v2Zm-.08-2.2L23.76 14l-.61-1.02h1.24Zm-1.33.2.6.99-.63 1.02a276 276 0 0 0 .03-2.02Zm-.05 2.81.65 1.3-.71 1.26c.03-.84.05-1.7.06-2.56Zm-.07 3.2h.02l-.03.01v-.01Zm0 .14.7 1.5-.82 1.52.11-3.02Zm-.16 4.04.67 1.3-.79 1.34.12-2.64Zm1.43 3.47-.84 1.38-.75-1.38h1.6Zm-1.61.4.64 1.2-.79 1.3.15-2.5Zm-.18 2.96.94-1.55.87 1.6h-1.8v-.05Zm-.04.74.72 1.46-.92 1.41.2-2.87Zm-.28 3.93.8 1.42-1.04 1.5.24-2.92Zm.92 1.64.95 1.68h-2.11l1.16-1.68Zm-1.26 2.42.85 1.25-1.1 1.34.25-2.59Zm-.36 3.67.89 1.24-1.16 1.28c.1-.81.19-1.66.27-2.52Zm-.32 3.02 1.39-1.54 1.1 1.55h-2.49Zm-.07.65 1.04 1.3-1.36 1.4.32-2.7Zm-.47 3.8 1.11 1.3-1.47 1.43.36-2.72Zm-.5 3.7 1.21 1.3-1.62 1.42c.13-.84.27-1.75.4-2.71Zm-.56 3.66 1.46 1.3-1.93 1.47c.15-.82.3-1.74.47-2.77Zm-1.12 6.22c.12-.59.3-1.46.5-2.57l1.51 1.25-2 1.32Zm.81-2.79h3.44l-1.92 1.26-1.52-1.26Zm3.45 2.87-1.64-1.36 1.81-1.19-.17 2.55Zm-3.27-3.33 1.87-1.42 1.6 1.42h-3.47Zm3.52-.44-1.36-1.2 1.5-1.15-.14 2.35Zm.21-3.44-1.31-1.41 1.46-1.29-.15 2.7Zm.06 7.04.18-2.59 1.23 1.26-1.41 1.33Zm.58-2.7h2.27l-1.18 1.12-1.1-1.12Zm1.35 1.38 1.2-1.13.17 2.53-1.37-1.4Zm1.4-5.64c-.05-.87-.1-1.8-.17-2.78l1.53 1.3-1.36 1.48Zm.06.81 1.69 1.34-1.51 1.4-.18-2.74Zm.44 6.4-.2-2.78 1.92 1.3-1.72 1.49Zm2-1.73-1.8-1.22h3.2l-1.4 1.22Zm2.25 1.51-1.93-1.3 1.44-1.26c.2 1.1.37 1.96.49 2.56Zm-.65-3.43-1.8-1.43 1.35-1.25.45 2.68Zm-1.01-6.37c.13.94.27 1.84.4 2.66l-1.6-1.36 1.2-1.3Z"/><path fill="#FFD143" d="M22.88 11.01h-1.54l1.23 1.71H27.02l1.22-1.7H22.88Z"/><path fill="#FFC000" d="M24.3 12.25c-1.09-.11-2.17-.38-2.87-1.24h-.08l1.22 1.7h4.45l.64-.89c-.17.1-.36.2-.55.25-.91.28-1.86.27-2.8.18Z" opacity=".4"/><path fill="#FFC000" d="M21.54 11.29c.13-.03.7-.1 1.82-.1 1.46.02 2.73-.1 3.45.67.34.36-.2.86-.2.86h.4l1.23-1.7h-6.9l.2.27Z"/><path fill="#FFD143" d="M22.84 8.93h-1.5v2.08h6.9V8.93h-5.4Z"/><path fill="#FFC000" d="M21.56 10.4c-.08 0-.15-.02-.22-.03v.64h6.9V9.62c-2.13.71-4.49.9-6.68.78Z"/><path fill="#FFD143" d="M26.23 5.97h-2.88c-.9.39-1.04 1.48-1.04 1.48h4.97c-.01 0-.14-1.1-1.05-1.48Z"/><path fill="#FFC000" d="M22.4 7.08c-.08.21-.1.37-.1.37h4.97s-.03-.26-.17-.58c-1.39.42-3.27.72-4.7.21Z"/></g><defs><clipPath id="a"><path fill="#fff" d="M0 0h50v110H0z"/></clipPath></defs></svg>