<svg width="67" height="110" viewBox="0 0 67 110" fill="none" xmlns="http://www.w3.org/2000/svg">
<g clip-path="url(#clip0_501_3282)">
<path d="M13.8824 102.603C14.361 100.562 13.0998 98.5181 11.0653 98.038C9.0309 97.5579 6.99367 98.8231 6.51505 100.864C6.03643 102.905 7.29767 104.948 9.33211 105.428C11.3665 105.909 13.4038 104.643 13.8824 102.603Z" fill="#7DBD41"/>
<path d="M7.30659 99.1185C8.78945 97.8563 10.2583 97.7249 11.4605 98.1519C9.98697 98.6727 8.93446 100.076 8.93446 101.728C8.93446 103.379 9.99164 104.787 11.4605 105.303C11.0675 105.444 10.6465 105.524 10.2021 105.524C7.27852 105.524 5.13142 102.201 7.30659 99.1185Z" fill="#64992B"/>
<path d="M5.99626 101.408C6.58098 101.408 7.14232 101.502 7.67091 101.666C9.87883 102.365 11.488 104.407 11.5582 106.833H3.78366H0.429688C0.518566 103.825 2.97441 101.408 5.99626 101.408Z" fill="#7DBD41"/>
<path d="M5.99626 101.408C6.58098 101.408 7.14232 101.502 7.67091 101.666C5.46299 102.365 3.85383 104.407 3.78366 106.833H0.429688C0.518566 103.825 2.97441 101.408 5.99626 101.408Z" fill="#64992B"/>
<path d="M13.9534 100.441C14.5428 100.441 15.1088 100.526 15.6467 100.671C12.9242 101.413 10.9081 103.881 10.8613 106.837H7.47461C7.53074 103.294 10.4076 100.441 13.9534 100.441Z" fill="#64992B"/>
<path d="M15.6467 100.676C18.3692 101.417 20.3853 103.885 20.4321 106.842H10.8613C10.9128 103.881 12.9242 101.412 15.6467 100.676Z" fill="#7DBD41"/>
<path d="M38.1017 68.8473C37.835 68.8238 37.6292 68.5986 37.6526 68.3452L37.6573 68.303C37.6807 68.0496 37.9146 67.8619 38.1859 67.8853H38.1906L38.3262 66.2899C38.4057 65.389 37.6807 64.5819 36.7217 64.4974C35.7628 64.4129 34.9114 65.084 34.8366 65.9849L34.7009 67.5803H34.7243C34.9909 67.6038 35.1968 67.829 35.1734 68.0824L35.1687 68.1247C35.1453 68.3781 34.9114 68.5658 34.6401 68.5423H34.6167L33.8262 77.7113L37.3158 78.0116L38.1064 68.8426L38.1017 68.8473Z" fill="#CE974E"/>
<path d="M20.1091 59.8193L19.5525 66.2761L19.4683 67.2334L18.6777 76.4024L21.3955 76.637L22.1861 67.468H22.1954C22.4621 67.4915 22.7006 67.3038 22.724 67.0504L22.7287 67.0081C22.7521 66.7548 22.5509 66.5295 22.2796 66.5061H22.2703L22.4059 64.9106C22.4855 64.0097 23.3321 63.3387 24.2911 63.4231C25.25 63.5076 25.9704 64.31 25.8956 65.2156L25.7599 66.8111H25.7365C25.4699 66.7876 25.2313 66.9753 25.2079 67.2287L25.2033 67.2709C25.1799 67.5243 25.3857 67.7495 25.6523 67.773H25.6757L24.8852 76.942L27.6076 77.1766L28.3982 68.0076H28.4122C28.6789 68.0311 28.9174 67.8434 28.9408 67.59L28.9455 67.5478C28.9689 67.2944 28.7677 67.0691 28.4964 67.0457H28.4824L28.618 65.4503C28.6976 64.5493 29.5442 63.8783 30.5032 63.9628C31.4621 64.0472 32.1825 64.8496 32.1077 65.7553L31.972 67.3507H31.958C31.6913 67.3272 31.4528 67.5149 31.4294 67.7683L31.4247 67.8105C31.4013 68.0639 31.6071 68.2892 31.8738 68.3126H31.8878L31.0973 77.4817L33.8197 77.7163L34.615 68.5473H34.6384C34.905 68.5707 35.1436 68.383 35.1669 68.1296L35.1716 68.0874C35.195 67.834 34.9892 67.6088 34.7226 67.5853H34.6992L34.8348 65.9899C34.9143 65.0889 35.761 64.4179 36.72 64.5024C37.6789 64.5869 38.404 65.3893 38.3245 66.2949L38.1888 67.8903H38.1841C37.9175 67.8669 37.6789 68.0546 37.6555 68.308L37.6509 68.3502C37.6275 68.6036 37.8333 68.8288 38.0999 68.8523H38.1046L37.3141 78.0213L40.0365 78.2559L40.8271 69.0869L40.8551 69.0916C41.1218 69.115 41.3603 68.9274 41.3837 68.674L41.3884 68.6317C41.4118 68.3783 41.206 68.1531 40.9393 68.1296L40.9113 68.1249L41.0469 66.5295C41.1265 65.6286 41.9731 64.9575 42.9321 65.042C43.891 65.1265 44.6114 65.9289 44.5366 66.8345L44.4009 68.43C44.1343 68.4065 43.8957 68.5942 43.877 68.8476L43.8723 68.8898C43.8489 69.1432 44.0501 69.3684 44.3214 69.3919L43.5308 78.5656L46.2486 78.8002L47.6754 62.2172L20.1091 59.8193Z" fill="#EFB867"/>
<path d="M46.0257 49.6508C45.7591 49.6273 45.5579 49.4021 45.5766 49.1487L45.5813 49.1064C45.6047 48.853 45.8386 48.67 46.1052 48.6888L46.2409 47.0934C46.3204 46.1924 45.5953 45.3853 44.6364 45.3009C43.6774 45.2164 42.8261 45.8874 42.7512 46.7884L42.6156 48.3838L42.6436 48.3885C42.9103 48.412 43.1161 48.6372 43.0927 48.8906L43.088 48.9328C43.0646 49.1862 42.8308 49.3739 42.5594 49.3504L42.5314 49.3458L41.7408 58.5148L39.0184 58.2801L39.8089 49.1111H39.8042C39.5376 49.0877 39.3318 48.8624 39.3552 48.609L39.3598 48.5668C39.3832 48.3134 39.6171 48.1257 39.8884 48.1492H39.8931L40.0288 46.5538C40.1083 45.6528 39.3832 44.8457 38.4243 44.7612C37.4653 44.6768 36.614 45.3478 36.5391 46.2487L36.4035 47.8442H36.4269C36.6935 47.8676 36.8993 48.0929 36.8759 48.3463L36.8713 48.3885C36.8479 48.6419 36.614 48.8296 36.3427 48.8061H36.3193L35.5287 57.9751L32.8063 57.7405L33.5968 48.5715H33.5828C33.3161 48.548 33.1103 48.3228 33.1337 48.0694L33.1384 48.0272C33.1618 47.7738 33.3957 47.5861 33.667 47.6095H33.681L33.8167 46.0141C33.8962 45.1132 33.1711 44.3061 32.2122 44.2216C31.2532 44.1371 30.4019 44.8082 30.327 45.7091L30.1914 47.3045H30.2054C30.472 47.328 30.6779 47.5532 30.6545 47.8066L30.6498 47.8489C30.6264 48.1023 30.3925 48.29 30.1212 48.2665H30.1072L29.3166 57.4355L26.5941 57.2009L27.3847 48.0319H27.3613C27.0947 48.0084 26.8888 47.7832 26.9122 47.5298L26.9169 47.4875C26.9403 47.2342 27.1742 47.0465 27.4455 47.0699H27.4689L27.6045 45.4745C27.6841 44.5735 26.959 43.7664 26.0001 43.682C25.0411 43.5975 24.1898 44.2685 24.1149 45.1695L23.9793 46.7649H23.9886C24.2552 46.7884 24.4611 47.0136 24.4377 47.267L24.433 47.3092C24.4096 47.5626 24.1757 47.7503 23.9044 47.7269H23.8951L23.1045 56.8959L20.3867 56.6613L47.9483 59.0497L45.2305 58.8151L46.0257 49.6508Z" fill="#CE974E"/>
<path d="M48.8639 48.9329L48.8172 48.9282L49.3738 42.4715L21.8123 40.083L21.2556 46.5398L21.2182 46.5351C20.9516 46.5116 20.713 46.6993 20.6896 46.9527L20.6849 46.995C20.6615 47.2484 20.8673 47.4736 21.134 47.4971L21.1714 47.5017L20.3809 56.6708L23.0987 56.9054L23.8892 47.7364H23.8986C24.1652 47.7598 24.4038 47.5721 24.4271 47.3187L24.4318 47.2765C24.4552 47.0231 24.2541 46.7979 23.9828 46.7744H23.9734L24.1091 45.179C24.1886 44.278 25.0353 43.607 25.9942 43.6915C26.9532 43.776 27.6782 44.5784 27.5987 45.484L27.463 47.0794H27.4396C27.173 47.056 26.9344 47.2437 26.9111 47.4971L26.9064 47.5393C26.883 47.7927 27.0888 48.0179 27.3554 48.0414H27.3788L26.5883 57.2104L29.3108 57.445L30.1013 48.276H30.1153C30.382 48.2995 30.6205 48.1118 30.6439 47.8584L30.6486 47.8161C30.672 47.5627 30.4662 47.3375 30.1995 47.314H30.1855L30.3212 45.7186C30.4007 44.8177 31.2474 44.1467 32.2063 44.2311C33.1653 44.3156 33.8856 45.118 33.8108 46.0236L33.6751 47.6191H33.6611C33.3945 47.5956 33.1559 47.7833 33.1325 48.0367L33.1278 48.0789C33.1045 48.3323 33.3103 48.5575 33.5769 48.581H33.5909L32.8004 57.75L35.5229 57.9846L36.3134 48.8156H36.3368C36.6034 48.8391 36.842 48.6514 36.8654 48.398L36.8701 48.3558C36.8935 48.1024 36.6876 47.8771 36.421 47.8537H36.3976L36.5333 46.2583C36.6128 45.3573 37.4595 44.6863 38.4184 44.7708C39.3774 44.8552 40.1024 45.6576 40.0229 46.5633L39.8872 48.1587H39.8826C39.6159 48.1352 39.3774 48.3229 39.354 48.5763L39.3493 48.6185C39.3259 48.8719 39.5271 49.0972 39.7984 49.1206H39.803L39.0125 58.2896L41.735 58.5243L42.5255 49.3553L42.5536 49.3599C42.8202 49.3834 43.0588 49.1957 43.0822 48.9423L43.0869 48.9001C43.1102 48.6467 42.9044 48.4215 42.6378 48.398L42.6097 48.3933L42.7454 46.7979C42.8249 45.8969 43.6716 45.2259 44.6305 45.3104C45.5895 45.3948 46.3145 46.1972 46.235 47.1029L46.0994 48.6983C45.8327 48.6749 45.5942 48.8625 45.5754 49.1159L45.5708 49.1582C45.5474 49.4116 45.7485 49.6368 46.0198 49.6603L45.2293 58.8293L47.9471 59.0639L48.7376 49.8949L48.7844 49.8996C49.051 49.923 49.2896 49.7353 49.313 49.4819L49.3177 49.4397C49.3317 49.1816 49.1306 48.9564 48.8639 48.9329Z" fill="#EFB867"/>
<path d="M47.7191 29.9989C47.4524 29.9754 47.2513 29.7502 47.27 29.4968L47.2747 29.4546C47.2981 29.2012 47.5319 29.0182 47.7986 29.037L47.9342 27.4415C48.0138 26.5406 47.2887 25.7335 46.3298 25.649C45.3708 25.5646 44.5194 26.2356 44.4446 27.1365L44.3089 28.7319L44.337 28.7366C44.6036 28.7601 44.8095 28.9853 44.7861 29.2387L44.7814 29.281C44.758 29.5343 44.5241 29.722 44.2528 29.6986L44.2247 29.6939L43.4342 38.8629L40.7117 38.6283L41.5023 29.4593H41.4976C41.231 29.4358 41.0251 29.2106 41.0485 28.9572L41.0532 28.9149C41.0766 28.6616 41.3105 28.4739 41.5818 28.4973H41.5865L41.7221 26.9019C41.8017 26.0009 41.0766 25.1938 40.1176 25.1094C39.1587 25.0249 38.3073 25.6959 38.2325 26.5969L38.0968 28.1923H38.1202C38.3869 28.2158 38.5927 28.441 38.5693 28.6944L38.5646 28.7366C38.5412 28.99 38.3073 29.1777 38.036 29.1543H38.0126L37.2221 38.3233L34.4996 38.0886L35.2902 28.9196H35.2761C35.0095 28.8962 34.8037 28.6709 34.8271 28.4176L34.8317 28.3753C34.8551 28.1219 35.089 27.9342 35.3603 27.9577H35.3744L35.51 26.3623C35.5895 25.4613 34.8645 24.6542 33.9055 24.5698C32.9466 24.4853 32.0952 25.1563 32.0204 26.0573L31.8847 27.6527H31.8988C32.1654 27.6761 32.3712 27.9014 32.3478 28.1548L32.3432 28.197C32.3198 28.4504 32.0859 28.6381 31.8146 28.6146H31.8005L31.01 37.7836L28.2875 37.549L29.0781 28.38H29.0547C28.788 28.3565 28.5822 28.1313 28.6056 27.8779L28.6103 27.8357C28.6337 27.5823 28.8676 27.3946 29.1389 27.4181H29.1623L29.2979 25.8226C29.3774 24.9217 28.6524 24.1146 27.6934 24.0301C26.7345 23.9457 25.8831 24.6167 25.8083 25.5176L25.6726 27.1131H25.682C25.9486 27.1365 26.1544 27.3618 26.131 27.6151L26.1264 27.6574C26.103 27.9108 25.8691 28.0985 25.5978 28.075H25.5884L24.7979 37.244L22.0801 37.0094L49.6416 39.3978L46.9238 39.1632L47.7191 29.9989Z" fill="#CE974E"/>
<path d="M50.5573 29.2762L50.5105 29.2715L51.0672 22.8147L23.5056 20.4263L22.949 26.8831L22.9115 26.8784C22.6449 26.8549 22.4063 27.0426 22.383 27.296L22.3783 27.3382C22.3549 27.5916 22.556 27.8169 22.8273 27.8403L22.8648 27.845L22.0742 37.014L24.792 37.2486L25.5826 28.0796H25.5919C25.8586 28.1031 26.0971 27.9154 26.1205 27.662L26.1252 27.6198C26.1486 27.3664 25.9428 27.1411 25.6761 27.1177H25.6668L25.8024 25.5223C25.8819 24.6213 26.7286 23.9503 27.6876 24.0348C28.6465 24.1192 29.3716 24.9216 29.292 25.8273L29.1564 27.4227H29.133C28.8664 27.3992 28.6278 27.5869 28.6044 27.8403L28.5997 27.8825C28.5763 28.1359 28.7822 28.3612 29.0488 28.3846H29.0722L28.2816 37.5536L31.0041 37.7883L31.7947 28.6193H31.8087C32.0753 28.6427 32.3139 28.455 32.3373 28.2016L32.342 28.1594C32.3654 27.906 32.1642 27.6808 31.8929 27.6573H31.8789L32.0145 26.0619C32.094 25.1609 32.9407 24.4899 33.8997 24.5744C34.8586 24.6588 35.5837 25.4612 35.5042 26.3669L35.3685 27.9623H35.3545C35.0878 27.9389 34.8493 28.1266 34.8259 28.3799L34.8212 28.4222C34.7978 28.6756 35.0036 28.9008 35.2703 28.9243H35.2843L34.4938 38.0933L37.2162 38.3279L38.0068 29.1589H38.0302C38.2968 29.1823 38.5354 28.9947 38.5588 28.7413L38.5634 28.699C38.5868 28.4456 38.3857 28.2204 38.1144 28.1969H38.091L38.2266 26.6015C38.3062 25.7006 39.1528 25.0295 40.1118 25.114C41.0707 25.1985 41.7958 26.0009 41.7163 26.9065L41.5806 28.5019H41.5759C41.3093 28.4785 41.0707 28.6662 41.0473 28.9196L41.0427 28.9618C41.0193 29.2152 41.2251 29.4404 41.4917 29.4639H41.4964L40.7059 38.6329L43.4283 38.8675L44.2189 29.6985L44.2469 29.7032C44.5136 29.7267 44.7521 29.539 44.7755 29.2856L44.7802 29.2434C44.8036 28.99 44.5978 28.7647 44.3311 28.7413L44.3031 28.7366L44.4387 27.1411C44.5183 26.2402 45.3649 25.5692 46.3239 25.6536C47.2828 25.7381 48.0032 26.5405 47.9284 27.4461L47.7927 29.0416C47.5261 29.0181 47.2875 29.2058 47.2688 29.4592L47.2641 29.5014C47.2407 29.7548 47.4419 29.9801 47.7132 30.0035L46.9226 39.1725L49.6404 39.4072L50.431 30.2381L50.4778 30.2428C50.7444 30.2663 50.983 30.0786 51.0064 29.8252L51.011 29.783C51.0251 29.5249 50.8239 29.2997 50.5573 29.2762Z" fill="#EFB867"/>
<path d="M49.5794 19.5957L46.492 19.3283L47.1469 11.7453H47.1423C46.8382 11.7171 46.609 11.4638 46.6324 11.1775L46.6371 11.1306C46.6604 10.8444 46.9318 10.6332 47.2358 10.6567H47.2405L47.3949 8.84538C47.4837 7.82243 46.6651 6.90741 45.5752 6.81356C45.4395 6.79948 45.3039 6.80417 45.1729 6.81825C45.0419 6.83233 44.9156 6.85579 44.794 6.89333C44.6724 6.93087 44.5554 6.97779 44.4432 7.0341C43.8865 7.32503 43.4889 7.85997 43.4374 8.49814L43.2831 10.3094H43.3111C43.6152 10.3376 43.8444 10.591 43.821 10.8772L43.8163 10.9241C43.793 11.2104 43.5216 11.4215 43.2176 11.3981H43.1895L42.5346 18.981L39.4473 18.7136L40.1022 11.1306H40.0881C39.7841 11.1024 39.5549 10.849 39.5783 10.5628L39.5829 10.5159C39.6063 10.2296 39.8776 10.0185 40.1817 10.042H40.1957L40.3501 8.23067C40.439 7.20772 39.6204 6.2927 38.5304 6.19885C37.4405 6.105 36.4769 6.86517 36.388 7.88812L36.2336 9.6994H36.2524C36.5564 9.72756 36.7856 9.98095 36.7622 10.2672L36.7482 10.3235C36.7248 10.6097 36.4535 10.8209 36.1494 10.7974H36.1307L35.4758 18.3804L32.3885 18.1129L33.0434 10.53H33.02C32.7159 10.5018 32.4867 10.2484 32.5101 9.96218L32.5148 9.91526C32.5382 9.62902 32.8095 9.41786 33.1136 9.44132H33.1369L33.2913 7.63004C33.3241 7.24526 33.2305 6.87925 33.0434 6.56017C32.9826 6.45693 32.9077 6.3537 32.8235 6.26454C32.4914 5.89853 32.019 5.64514 31.4717 5.59822C30.7887 5.53722 30.1619 5.81407 29.7596 6.27862C29.521 6.55547 29.362 6.90271 29.3292 7.28749L29.1749 9.09877H29.1842C29.4883 9.12693 29.7175 9.38032 29.6941 9.66656L29.6894 9.71348C29.666 9.99972 29.3947 10.2109 29.0907 10.1874H29.0813L28.4264 17.7704L25.3438 17.5029L49.5794 19.5957L50.2343 12.0128L49.5794 19.5957Z" fill="#CE974E"/>
<path d="M50.3618 10.929L50.329 10.9243L50.8389 4.99772L26.6079 2.89551L26.0981 8.82205H26.056C25.7519 8.7939 25.4806 9.00975 25.4572 9.29599L25.4525 9.34291C25.4291 9.62915 25.6583 9.88254 25.9624 9.9107L26.0045 9.91539L25.3496 17.4984L28.4323 17.7658L29.0872 10.1829H29.0965C29.4006 10.211 29.6719 9.99516 29.6953 9.70892L29.7 9.662C29.7233 9.37576 29.4941 9.12237 29.1901 9.09421H29.1807L29.3351 7.28293C29.3678 6.89815 29.5222 6.55091 29.7654 6.27406C30.1631 5.80951 30.7946 5.53735 31.4775 5.59366C32.0201 5.64058 32.4973 5.89397 32.8294 6.25998C32.9136 6.35383 32.9838 6.45237 33.0493 6.55561C33.2364 6.87 33.3299 7.2407 33.2972 7.62548L33.1428 9.43676H33.1194C32.8154 9.4086 32.5441 9.62446 32.5207 9.9107L32.516 9.95762C32.4926 10.2439 32.7218 10.4972 33.0259 10.5254H33.0493L32.3944 18.1084L35.4817 18.3758L36.1319 10.7929H36.1506C36.4547 10.821 36.726 10.6052 36.7494 10.3189L36.7541 10.272C36.7775 9.98577 36.5482 9.73238 36.2442 9.70423H36.2255L36.3798 7.89295C36.4687 6.87 37.4323 6.10982 38.5223 6.20367C39.6122 6.29752 40.4308 7.21255 40.3419 8.2355L40.1876 10.0468H40.1735C39.8695 10.0186 39.5982 10.2345 39.5748 10.5207L39.5701 10.5676C39.5467 10.8539 39.7759 11.1073 40.08 11.1354H40.094L39.4391 18.7184L42.5265 18.9859L43.1814 11.4029H43.2094C43.5135 11.431 43.7848 11.2152 43.8082 10.929L43.8129 10.882C43.8362 10.5958 43.607 10.3424 43.303 10.3142H43.2749L43.4293 8.50296C43.4854 7.86479 43.883 7.32516 44.435 7.03893C44.5473 6.98262 44.6642 6.931 44.7858 6.89815C44.9075 6.86061 45.0338 6.83715 45.1647 6.82307C45.2957 6.809 45.4314 6.809 45.567 6.81838C46.657 6.91223 47.4756 7.82725 47.3867 8.8502L47.2323 10.6615H47.2276C46.9236 10.6333 46.6523 10.8492 46.6289 11.1354L46.6242 11.1823C46.6008 11.4686 46.83 11.722 47.1341 11.7501H47.1388L46.4839 19.3331L49.5712 19.6006L50.2261 12.0176L50.2589 12.0223C50.5629 12.0504 50.8342 11.8346 50.8576 11.5484L50.8623 11.5014C50.895 11.2105 50.6658 10.9571 50.3618 10.929Z" fill="#EFB867"/>
<path d="M46.7381 82.1138L17.5215 79.5811L15.119 107.468L44.3356 110.001L46.7381 82.1138Z" fill="#FFD895"/>
<path d="M30.0941 87.5625L28.2812 108.605L31.1661 108.855L32.9789 87.8126L30.0941 87.5625Z" fill="#EFB867"/>
<path d="M23.5081 86.9932L21.6953 108.036L24.5802 108.286L26.393 87.2432L23.5081 86.9932Z" fill="#EFB867"/>
<path d="M36.6839 88.1353L34.8711 109.178L37.7559 109.428L39.5687 88.3853L36.6839 88.1353Z" fill="#EFB867"/>
<path d="M43.2679 88.7065L41.4551 109.749L44.3353 109.999L46.1481 88.9562L43.2679 88.7065Z" fill="#EFB867"/>
<path d="M16.932 86.4214L15.1191 107.464L17.9993 107.714L19.8121 86.6711L16.932 86.4214Z" fill="#EFB867"/>
<path d="M46.7366 82.113L17.5191 79.5791L16.9297 86.4207L19.8065 86.6694L19.9515 84.9754C20.0357 84.0181 20.9339 83.3096 21.949 83.3987C22.9687 83.4879 23.7312 84.3419 23.647 85.2992L23.502 86.9932L26.3882 87.2419L26.5332 85.5479C26.6174 84.5906 27.5155 83.8821 28.5306 83.9712C29.5504 84.0604 30.3128 84.9144 30.2286 85.8717L30.0836 87.5656L32.9698 87.8143L33.1148 86.1204C33.199 85.1631 34.0972 84.4545 35.1123 84.5437C36.132 84.6329 36.8945 85.4869 36.8103 86.4441L36.6653 88.1381L39.5515 88.3868L39.6965 86.6928C39.7807 85.7356 40.6788 85.027 41.6939 85.1162C42.7137 85.2053 43.4762 86.0594 43.392 87.0166L43.2469 88.7106L46.1238 88.9593L46.7366 82.113Z" fill="#EFB867"/>
<path d="M19.8348 86.674L16.8784 86.4159C16.6024 86.3924 16.3592 86.5989 16.3358 86.8757V86.8851C16.3124 87.162 16.5182 87.406 16.7942 87.4294L19.7506 87.6875C20.0266 87.711 20.2698 87.5045 20.2932 87.2277V87.2183C20.3166 86.9461 20.1108 86.7021 19.8348 86.674Z" fill="#EFB867"/>
<path d="M26.4113 87.2465L23.4877 86.9931C23.2023 86.9696 22.9497 87.1667 22.9263 87.4342L22.9217 87.4764C22.8983 87.7439 23.1135 87.9832 23.3988 88.0067L26.3224 88.2601C26.6078 88.2835 26.8604 88.0864 26.8838 87.819L26.8884 87.7767C26.9118 87.5093 26.6966 87.27 26.4113 87.2465Z" fill="#EFB867"/>
<path d="M33.007 87.8188L30.0834 87.5654C29.798 87.5419 29.5454 87.739 29.522 88.0065L29.5174 88.0487C29.494 88.3162 29.7092 88.5555 29.9945 88.5789L32.9181 88.8323C33.2035 88.8558 33.4561 88.6587 33.4795 88.3912L33.4841 88.349C33.5028 88.0815 33.2923 87.8422 33.007 87.8188Z" fill="#EFB867"/>
<path d="M39.6027 88.3915L36.6791 88.1381C36.3937 88.1147 36.1411 88.3117 36.1177 88.5792L36.1131 88.6214C36.0897 88.8889 36.3049 89.1282 36.5902 89.1517L39.5138 89.4051C39.7992 89.4285 40.0518 89.2315 40.0752 88.964L40.0798 88.9218C40.0985 88.6543 39.8834 88.415 39.6027 88.3915Z" fill="#EFB867"/>
<path d="M46.2137 88.964L43.2573 88.7059C42.9813 88.6825 42.7381 88.8889 42.7147 89.1658V89.1752C42.6913 89.452 42.8971 89.696 43.1731 89.7195L46.1295 89.9776C46.4055 90.001 46.6487 89.7946 46.6721 89.5177V89.5083C46.6955 89.2315 46.4897 88.9875 46.2137 88.964Z" fill="#EFB867"/>
<path opacity="0.58" d="M46.9331 78.852L46.2455 78.791L46.877 71.4614L47.0361 69.6219L47.0828 69.6266C47.3495 69.6501 47.588 69.4624 47.6114 69.209L47.6161 69.1668C47.6395 68.9134 47.4337 68.6881 47.167 68.6647L47.1203 68.66L47.6769 62.2032V62.1891C48.43 62.1891 49.0709 61.6589 49.1317 60.9362L49.1551 60.6641L49.1598 60.6312C49.2206 59.9086 48.6826 59.2751 47.9389 59.1437L47.9482 59.0499L48.7388 49.8809L48.7855 49.8856C49.0522 49.909 49.2907 49.7213 49.3141 49.4679L49.3188 49.4257C49.3422 49.1723 49.1364 48.9471 48.8697 48.9236L48.823 48.9189L49.3796 42.4621V42.4481C50.1327 42.4481 50.7736 41.9178 50.8344 41.1952L50.8484 41.031L50.8625 40.8855C50.9233 40.1628 50.3854 39.5294 49.6416 39.398V39.3839L50.4321 30.2149L50.4789 30.2196C50.7455 30.2431 50.9841 30.0554 51.0075 29.802L51.0122 29.7597C51.0356 29.5063 50.8344 29.2811 50.5631 29.2576L50.5163 29.2529L51.073 22.7962L50.942 22.7868C51.7559 22.8572 52.467 22.2941 52.5325 21.5339L52.5418 21.4025L52.5558 21.2289C52.6213 20.464 52.0179 19.7883 51.204 19.7179L49.5808 19.5772L50.2357 11.9942L50.2684 11.9989C50.5725 12.027 50.8438 11.8112 50.8672 11.5249L50.8718 11.478C50.8952 11.1918 50.666 10.9384 50.362 10.9102L50.3292 10.9055L50.8344 5.06815L51.0917 5.09161C51.8495 5.15731 52.5184 4.63175 52.5792 3.9185L52.6073 3.59942L52.612 3.52903C52.6728 2.81578 52.1068 2.1823 51.349 2.11661L41.3479 1.27197L41.0999 4.15782C41.0999 4.15782 45.7777 4.88045 45.5766 6.81843L36.7402 109.343L37.7553 109.433L41.4554 109.752L44.3323 110L46.0584 89.973L46.1052 89.9777C46.3905 90.0012 46.6431 89.8041 46.6665 89.5366L46.6712 89.4944C46.6946 89.2269 46.4794 88.9876 46.194 88.9641L46.1473 88.9594L46.7367 82.1179L46.6525 82.1085C47.5132 82.1836 48.2663 81.5876 48.3365 80.7805L48.3645 80.4802V80.4568C48.4347 79.645 47.7939 78.927 46.9331 78.852Z" fill="#D89C4C"/>
<path d="M25.6572 67.7682C25.3905 67.7447 25.1847 67.5195 25.2081 67.2661L25.2128 67.2239C25.2362 66.9705 25.4701 66.7828 25.7414 66.8062H25.7648L25.9004 65.2108C25.9799 64.3099 25.2549 63.5028 24.2959 63.4183C23.337 63.3338 22.4856 64.0049 22.4108 64.9058L22.2751 66.5012H22.2845C22.5511 66.5247 22.7569 66.7499 22.7336 67.0033L22.7289 67.0456C22.7055 67.299 22.4716 67.4867 22.2003 67.4632H22.1909L21.4004 76.6322L24.89 76.9372L25.6806 67.7682H25.6572Z" fill="#CE974E"/>
<path d="M31.8794 68.3077C31.6128 68.2843 31.407 68.059 31.4304 67.8057L31.435 67.7634C31.4584 67.51 31.6923 67.3223 31.9636 67.3458H31.9777L32.1133 65.7504C32.1928 64.8494 31.4678 64.0423 30.5088 63.9579C29.5499 63.8734 28.6985 64.5444 28.6237 65.4454L28.488 67.0408H28.5021C28.7687 67.0642 28.9745 67.2895 28.9511 67.5429L28.9465 67.5851C28.9231 67.8385 28.6892 68.0262 28.4179 68.0027H28.4038L27.6133 77.1718L31.1029 77.4721L31.8935 68.3031L31.8794 68.3077Z" fill="#CE974E"/>
<path d="M43.8729 68.8852L43.8776 68.843C43.901 68.5896 44.1349 68.4066 44.4015 68.4254L44.5372 66.83C44.6167 65.929 43.8916 65.1219 42.9327 65.0375C41.9737 64.953 41.1224 65.624 41.0475 66.525L40.9119 68.1204L40.9399 68.1251C41.2066 68.1485 41.4124 68.3738 41.389 68.6272L41.3843 68.6694C41.3609 68.9228 41.127 69.1105 40.8557 69.087L40.8277 69.0823L40.0371 78.2513L43.5267 78.5517L44.3173 69.378C44.0507 69.3639 43.8495 69.1386 43.8729 68.8852Z" fill="#CE974E"/>
<path d="M36.7201 64.5023C35.7612 64.4178 34.9098 65.0888 34.835 65.9898L34.7461 67.0268C34.8256 66.1259 35.6723 65.4549 36.6312 65.5393C37.5902 65.6238 38.3152 66.4262 38.2357 67.3318L38.3246 66.2948C38.4041 65.3939 37.6791 64.5868 36.7201 64.5023Z" fill="#A57235"/>
<path d="M35.0735 69.1713L35.0781 69.1291C35.1015 68.8757 34.8957 68.6504 34.6291 68.627H34.6057L34.5215 69.5842H34.5449C34.8162 69.6124 35.0548 69.4247 35.0735 69.1713Z" fill="#CE974E"/>
<path d="M37.5631 69.3449L37.5585 69.3872C37.5351 69.6406 37.7409 69.8658 38.0075 69.8893H38.0122L38.0964 68.932H38.0917C37.8251 68.9038 37.5865 69.0915 37.5631 69.3449Z" fill="#CE974E"/>
<path d="M25.1237 68.2655L25.119 68.3078C25.0956 68.5612 25.3014 68.7864 25.5681 68.8099H25.5915L25.6757 67.8526H25.6523C25.381 67.8291 25.1424 68.0121 25.1237 68.2655Z" fill="#CE974E"/>
<path d="M22.6309 68.0922L22.6356 68.0499C22.659 67.7966 22.4532 67.5713 22.1865 67.5479H22.1772L22.0977 68.5098H22.107C22.3736 68.5333 22.6122 68.3456 22.6309 68.0922Z" fill="#CE974E"/>
<path d="M24.2963 63.4232C23.3373 63.3387 22.486 64.0097 22.4111 64.9107L22.3223 65.9477C22.4018 65.0468 23.2485 64.3758 24.2074 64.4602C25.1664 64.5447 25.8867 65.3471 25.8119 66.2527L25.9008 65.2157C25.9756 64.3148 25.2552 63.5077 24.2963 63.4232Z" fill="#A57235"/>
<path d="M28.8532 68.6317L28.8579 68.5895C28.8812 68.3361 28.6754 68.1109 28.4088 68.0874H28.3947L28.3105 69.0447H28.3246C28.5959 69.0728 28.8345 68.8851 28.8532 68.6317Z" fill="#CE974E"/>
<path d="M30.5092 63.9627C29.5502 63.8783 28.6989 64.5493 28.624 65.4502L28.5352 66.4873C28.6147 65.5863 29.4614 64.9153 30.4203 64.9998C31.3793 65.0842 32.1043 65.8866 32.0248 66.7923L32.1137 65.7553C32.1885 64.8543 31.4681 64.0472 30.5092 63.9627Z" fill="#A57235"/>
<path d="M31.3463 68.8054L31.3417 68.8476C31.3183 69.101 31.5241 69.3262 31.7907 69.3497H31.8048L31.889 68.3924H31.8749C31.6036 68.3643 31.365 68.552 31.3463 68.8054Z" fill="#CE974E"/>
<path d="M42.9369 65.0418C41.978 64.9574 41.1266 65.6284 41.0518 66.5294L40.9629 67.5664C41.0424 66.6654 41.8891 65.9944 42.848 66.0789C43.807 66.1633 44.532 66.9657 44.4525 67.8714L44.5414 66.8344C44.6162 65.9287 43.8959 65.1263 42.9369 65.0418Z" fill="#A57235"/>
<path d="M41.2949 69.7111L41.2996 69.6689C41.323 69.4155 41.1172 69.1903 40.8506 69.1668L40.8225 69.1621L40.7383 70.1194L40.7664 70.1241C41.0377 70.1522 41.2762 69.9645 41.2949 69.7111Z" fill="#CE974E"/>
<path d="M43.7839 69.8847L43.7792 69.9269C43.7558 70.1803 43.957 70.4055 44.2283 70.429L44.3125 69.4718C44.0458 69.4483 43.8073 69.6313 43.7839 69.8847Z" fill="#CE974E"/>
<path d="M35.1672 68.1342L35.1719 68.0919C35.1953 67.8385 34.9895 67.6133 34.7228 67.5898H34.6994L34.6152 68.5471H34.6386C34.9053 68.5706 35.1438 68.3829 35.1672 68.1342Z" fill="#CE974E"/>
<path d="M37.6569 68.3078L37.6522 68.3501C37.6288 68.6034 37.8346 68.8287 38.1013 68.8521H38.1059L38.1901 67.8949H38.1855C37.9142 67.8667 37.6756 68.0544 37.6569 68.3078Z" fill="#CE974E"/>
<path d="M22.7255 67.0551L22.7301 67.0128C22.7535 66.7594 22.5524 66.5342 22.2811 66.5107H22.2717L22.1875 67.468H22.1969C22.4635 67.4915 22.7021 67.3038 22.7255 67.0551Z" fill="#CE974E"/>
<path d="M25.2135 67.2287L25.2088 67.271C25.1855 67.5243 25.3913 67.7496 25.6579 67.773H25.6813L25.7655 66.8158H25.7421C25.4708 66.7876 25.2322 66.9753 25.2135 67.2287Z" fill="#CE974E"/>
<path d="M28.9469 67.5946L28.9516 67.5524C28.975 67.299 28.7738 67.0738 28.5025 67.0503H28.4885L28.4043 68.0076H28.4183C28.685 68.031 28.9235 67.8433 28.9469 67.5946Z" fill="#CE974E"/>
<path d="M31.4342 67.7683L31.4295 67.8105C31.4062 68.0639 31.612 68.2891 31.8786 68.3126H31.8926L31.9768 67.3553H31.9628C31.6915 67.3272 31.4529 67.5149 31.4342 67.7683Z" fill="#CE974E"/>
<path d="M43.8776 68.8474L43.8729 68.8896C43.8496 69.143 44.0507 69.3682 44.322 69.3917L44.4062 68.4344C44.1349 68.4063 43.8963 68.594 43.8776 68.8474Z" fill="#CE974E"/>
<path d="M41.3848 68.674L41.3895 68.6318C41.4128 68.3784 41.207 68.1532 40.9404 68.1297L40.9123 68.125L40.8281 69.0823L40.8562 69.0869C41.1275 69.1104 41.3661 68.9227 41.3848 68.674Z" fill="#CE974E"/>
<path d="M19.5214 66.2715C19.2548 66.2481 19.0162 66.4357 18.9929 66.6891L18.9882 66.7314C18.9648 66.9848 19.1659 67.21 19.4372 67.2335L19.4747 67.2381L19.5589 66.2809L19.5214 66.2715Z" fill="#EFB867"/>
<path d="M47.161 68.669L47.1142 68.6643L47.6709 62.2075L46.2441 78.7906L47.0347 69.6216L47.0815 69.6263C47.3481 69.6497 47.5867 69.462 47.6101 69.2086L47.6147 69.1664C47.6334 68.9177 47.4323 68.6925 47.161 68.669Z" fill="#EFB867"/>
<path d="M44.5707 46.1502C45.5296 46.2346 46.25 47.037 46.1752 47.9427L46.25 47.098C46.3295 46.1971 45.6045 45.39 44.6455 45.3055C43.6866 45.2211 42.8352 45.8921 42.7604 46.793L42.6855 47.6377C42.7604 46.7367 43.6071 46.0657 44.5707 46.1502Z" fill="#A57235"/>
<path d="M25.9301 44.5315C26.889 44.616 27.6094 45.4184 27.5346 46.324L27.6094 45.4794C27.6889 44.5784 26.9639 43.7713 26.0049 43.6869C25.046 43.6024 24.1946 44.2734 24.1198 45.1744L24.0449 46.019C24.1198 45.1181 24.9664 44.4517 25.9301 44.5315Z" fill="#A57235"/>
<path d="M38.3539 45.6106C39.3128 45.6951 40.0379 46.4975 39.9584 47.4031L40.0332 46.5585C40.1128 45.6575 39.3877 44.8504 38.4287 44.766C37.4698 44.6815 36.6184 45.3525 36.5436 46.2535L36.4688 47.0981C36.5436 46.1972 37.395 45.5261 38.3539 45.6106Z" fill="#A57235"/>
<path d="M32.141 45.0711C33.1 45.1555 33.8203 45.9579 33.7455 46.8636L33.8203 46.0189C33.8999 45.118 33.1748 44.3109 32.2159 44.2264C31.2569 44.142 30.4055 44.813 30.3307 45.7139L30.2559 46.5585C30.3307 45.6576 31.1821 44.9866 32.141 45.0711Z" fill="#A57235"/>
<path d="M40.0434 26.0107C41.0023 26.0951 41.7227 26.8975 41.6478 27.8032L41.7274 26.9022C41.8069 26.0013 41.0818 25.1942 40.1229 25.1097C39.1639 25.0253 38.3126 25.6963 38.2377 26.5972L38.1582 27.4982C38.233 26.5972 39.0844 25.9309 40.0434 26.0107Z" fill="#A57235"/>
<path d="M40.7168 38.6284L43.4393 38.8677L40.7168 38.6284Z" fill="#CE974E"/>
<path d="M46.2543 26.5502C47.2132 26.6347 47.9383 27.4371 47.8588 28.3427L47.9383 27.4418C48.0178 26.5408 47.2928 25.7337 46.3338 25.6493C45.3749 25.5648 44.5235 26.2358 44.4487 27.1368L44.3691 28.0377C44.4487 27.1368 45.2953 26.4658 46.2543 26.5502Z" fill="#A57235"/>
<path d="M24.7979 37.2488L22.0801 37.0142L24.7979 37.2488Z" fill="#CE974E"/>
<path d="M46.9277 39.168L49.6455 39.4026L46.9277 39.168Z" fill="#CE974E"/>
<path d="M27.6137 24.936C28.5726 25.0204 29.293 25.8228 29.2181 26.7285L29.2977 25.8275C29.3772 24.9266 28.6521 24.1195 27.6932 24.035C26.7342 23.9505 25.8829 24.6216 25.808 25.5225L25.7285 26.4235C25.808 25.5225 26.6547 24.8515 27.6137 24.936Z" fill="#A57235"/>
<path d="M34.5 38.0889L37.2225 38.3282L34.5 38.0889Z" fill="#CE974E"/>
<path d="M28.2871 37.5537L31.0096 37.7883L28.2871 37.5537Z" fill="#CE974E"/>
<path d="M33.8305 25.4755C34.7894 25.56 35.5098 26.3624 35.4349 27.268L35.5145 26.3671C35.594 25.4661 34.8689 24.659 33.91 24.5746C32.951 24.4901 32.0997 25.1611 32.0248 26.0621L31.9453 26.963C32.0202 26.0621 32.8715 25.391 33.8305 25.4755Z" fill="#A57235"/>
<path d="M39.4395 18.7183L42.5315 18.9857L39.4395 18.7183Z" fill="#CE974E"/>
<path d="M38.451 7.01543C39.5409 7.10928 40.3596 8.0243 40.2707 9.04725L40.3408 8.23546C40.4297 7.21251 39.6111 6.29749 38.5212 6.20364C37.4313 6.10979 36.4676 6.86996 36.3788 7.89291L36.3086 8.7047C36.3975 7.68175 37.3611 6.92158 38.451 7.01543Z" fill="#A57235"/>
<path d="M44.369 7.85041C44.4813 7.7941 44.5982 7.74248 44.7198 7.70963C44.8415 7.67209 44.9678 7.64863 45.0987 7.63455C45.2297 7.62048 45.3654 7.62048 45.501 7.62986C46.591 7.72371 47.4096 8.63873 47.3207 9.66168L47.3909 8.84989C47.4797 7.82694 46.6611 6.91192 45.5712 6.81807C45.4355 6.80399 45.2999 6.80869 45.1689 6.82276C45.0379 6.83684 44.9116 6.8603 44.79 6.89784C44.6684 6.93538 44.5514 6.98231 44.4392 7.03861C43.8825 7.32955 43.4849 7.86448 43.4334 8.50265L43.3633 9.31444C43.4147 8.67627 43.8123 8.14134 44.369 7.85041Z" fill="#A57235"/>
<path d="M31.4022 6.40513C31.9448 6.45205 32.422 6.70544 32.7541 7.07145C32.8383 7.1653 32.9084 7.26384 32.9739 7.36707C33.161 7.68147 33.2546 8.05217 33.2219 8.43695L33.292 7.62516C33.3248 7.24038 33.2312 6.87437 33.0441 6.55528C32.9833 6.45205 32.9084 6.34882 32.8242 6.25966C32.4921 5.89365 32.0197 5.64026 31.4724 5.59334C30.7894 5.53233 30.1626 5.80919 29.7603 6.27374C29.5217 6.55059 29.3627 6.89783 29.3299 7.28261L29.2598 8.0944C29.2925 7.70962 29.4469 7.36238 29.6901 7.08553C30.0924 6.62098 30.7239 6.34882 31.4022 6.40513Z" fill="#A57235"/>
<path d="M28.4323 17.7608L25.3496 17.498L28.4323 17.7608Z" fill="#CE974E"/>
<path d="M46.4883 19.3281L49.5803 19.5956L46.4883 19.3281Z" fill="#CE974E"/>
<path d="M32.3887 18.1084L35.4807 18.3759L32.3887 18.1084Z" fill="#CE974E"/>
<path d="M44.7903 6.89355C44.6687 6.93109 44.5517 6.97802 44.4395 7.03433C44.5517 6.98271 44.6687 6.93109 44.7903 6.89355Z" fill="#EFB867"/>
<path d="M45.1699 6.81836C45.0389 6.83244 44.9126 6.8559 44.791 6.89344C44.9126 6.86059 45.0389 6.83244 45.1699 6.81836Z" fill="#EFB867"/>
<path d="M29.7598 6.27374C30.1574 5.80919 30.7889 5.53703 31.4718 5.59334C30.7936 5.53233 30.1621 5.80919 29.7598 6.27374Z" fill="#EFB867"/>
<path d="M47.853 59.134L20.4693 56.7596C19.6834 56.6892 18.9911 57.2758 18.9209 58.0641L18.9022 58.28C18.832 59.0683 19.4168 59.7628 20.2026 59.8332L47.5864 62.2076C48.3723 62.2779 49.0646 61.6914 49.1348 60.903L49.1535 60.6872C49.219 59.8942 48.6389 59.1997 47.853 59.134Z" fill="#FFD895"/>
<path d="M49.5523 39.3977L22.1685 37.0233C21.3826 36.9529 20.6903 37.5395 20.6201 38.3278L20.6014 38.5437C20.5312 39.332 21.116 40.0265 21.9018 40.0968L49.2856 42.4712C50.0715 42.5416 50.7638 41.9551 50.834 41.1667L50.8527 40.9509C50.9229 40.1578 50.3428 39.4634 49.5523 39.3977Z" fill="#FFD895"/>
<path d="M51.2456 19.7414L23.8618 17.3671C23.076 17.2967 22.3837 17.8832 22.3135 18.6716L22.2948 18.8874C22.2246 19.6757 22.8093 20.3702 23.5952 20.4406L50.979 22.815C51.7649 22.8854 52.4572 22.2988 52.5273 21.5105L52.546 21.2946C52.6162 20.5063 52.0362 19.8118 51.2456 19.7414Z" fill="#FFD895"/>
<path d="M51.3859 2.1399L26.7386 0.00484431C26.0042 -0.0608497 25.354 0.488165 25.2931 1.22488L25.2651 1.52519C25.1996 2.2619 25.7469 2.91415 26.4813 2.97515L51.1286 5.11021C51.863 5.17591 52.5132 4.62689 52.574 3.89018L52.6021 3.58986C52.6676 2.85784 52.1203 2.2056 51.3859 2.1399Z" fill="#FFD895"/>
<path d="M46.9839 78.8565L17.9582 76.3414C17.1256 76.271 16.3912 76.8904 16.321 77.7257L16.3023 77.9509C16.2321 78.7861 16.8496 79.5229 17.6823 79.5933L46.7079 82.1084C47.5406 82.1788 48.275 81.5594 48.3452 80.7241L48.3639 80.4989C48.4341 79.6683 47.8166 78.9316 46.9839 78.8565Z" fill="#FFD895"/>
<path d="M49.1544 60.6687L49.1591 60.6358C49.2246 59.8709 48.6212 59.1952 47.8072 59.1248L20.517 56.7598C19.7031 56.6895 18.992 57.2526 18.9266 58.0127L18.9219 58.0456L49.1544 60.6687Z" fill="#CE974E"/>
<path d="M50.8486 41.0449L50.8626 40.8995C50.9281 40.1346 50.3247 39.4589 49.5107 39.3885L22.2158 37.0235C21.4019 36.9531 20.6909 37.5162 20.6254 38.2764L20.6113 38.4219L50.8486 41.0449Z" fill="#CE974E"/>
<path d="M52.5372 21.4212L52.5513 21.2476C52.6168 20.4827 52.0133 19.807 51.1994 19.7367L23.9092 17.3717C23.0952 17.3013 22.3842 17.8644 22.3187 18.6245L22.3047 18.7982L52.5372 21.4212Z" fill="#CE974E"/>
<path d="M52.6027 3.61799L52.6074 3.5476C52.6682 2.83435 52.1022 2.20087 51.3444 2.13518L26.786 0.00481575C26.0235 -0.0561859 25.3546 0.469367 25.2937 1.18262L25.2891 1.253L52.6027 3.61799Z" fill="#CE974E"/>
<path d="M48.3632 80.4756V80.4521C48.4333 79.645 47.7925 78.9271 46.9318 78.852L18.0043 76.3462C17.1436 76.2711 16.3905 76.8671 16.3203 77.6742V77.6977L48.3632 80.4756Z" fill="#CE974E"/>
<path d="M67 106.837H0V110H67V106.837Z" fill="#8AC53E"/>
</g>
<defs>
<clipPath id="clip0_501_3282">
<rect width="67" height="110" fill="white"/>
</clipPath>
</defs>
</svg>
