<svg width="54" height="88" viewBox="0 0 54 88" fill="none" xmlns="http://www.w3.org/2000/svg">
<g clip-path="url(#clip0_501_2987)">
<path d="M52.6509 30.3599H0.460938V75.7699H52.6509V30.3599Z" fill="#ABB2B6"/>
<path d="M8.88023 77.6802C8.11023 77.6802 7.49023 78.3102 7.49023 79.0702V86.6702C7.49023 87.0902 7.84023 87.4402 8.26023 87.4402H9.51023C9.93023 87.4402 10.2802 87.0902 10.2802 86.6702V79.0702C10.2802 78.3102 9.65023 77.6802 8.88023 77.6802Z" fill="#142023"/>
<path d="M44.0091 77.6802C43.2391 77.6802 42.6191 78.3102 42.6191 79.0702V86.6702C42.6191 87.0902 42.9691 87.4402 43.3891 87.4402H44.6391C45.0591 87.4402 45.4091 87.0902 45.4091 86.6702V79.0702C45.3991 78.3102 44.7791 77.6802 44.0091 77.6802Z" fill="#142023"/>
<path d="M26.5607 19.9199C12.1507 19.9199 0.470703 24.5499 0.470703 30.2499C0.470703 30.2899 0.480703 30.3199 0.480703 30.3599H52.6507C52.6507 30.3199 52.6607 30.2899 52.6607 30.2499C52.6507 24.5399 40.9707 19.9199 26.5607 19.9199Z" fill="#5E6B73"/>
<path d="M47.7298 30.25H5.25977V78.87H47.7298V30.25Z" fill="#E0E0D6"/>
<path d="M47.7298 56.1401H5.25977V75.7701H47.7298V56.1401Z" fill="#F9AB2C"/>
<path d="M47.7298 75.6602H5.25977V79.6702H47.7298V75.6602Z" fill="#2E0000"/>
<path d="M12.0707 33.71C8.8407 33.71 6.2207 34.14 6.2207 34.68V55.09H17.9207V34.68C17.9207 34.14 15.3007 33.71 12.0707 33.71Z" fill="#142023"/>
<path d="M40.9496 33.7598C37.8196 33.7598 35.2796 34.1698 35.1196 34.6798H35.0996V55.0898H46.7996V34.6798H46.7796C46.6296 34.1698 44.0796 33.7598 40.9496 33.7598Z" fill="#142023"/>
<path d="M26.8191 33.7598C22.9691 33.7598 19.8391 34.1698 19.6391 34.6798H19.6191V55.0898H34.0191V34.6798H33.9991C33.8091 34.1698 30.6691 33.7598 26.8191 33.7598Z" fill="#142023"/>
<path d="M15.4602 79.4302L10.9902 85.2302H42.0002L37.7602 79.4302H15.4602Z" fill="#2E0000"/>
<path d="M38.3404 79.6401H14.6504V80.4201H38.3404V79.6401Z" fill="#6A2700"/>
<path d="M39.3302 81.2402H13.6602V82.0202H39.3302V81.2402Z" fill="#6A2700"/>
<path d="M40.6211 82.8501H12.3711V83.6301H40.6211V82.8501Z" fill="#6A2700"/>
<path d="M42.0002 84.4502H10.9902V85.2302H42.0002V84.4502Z" fill="#6A2700"/>
<path d="M5.26094 53.8901H0.460938V75.7701H5.26094V53.8901Z" fill="#CD7C00"/>
<path d="M52.5305 53.8901H47.7305V75.7701H52.5305V53.8901Z" fill="#CD7C00"/>
<path d="M53.1 29.8198H0V30.3598H53.1V29.8198Z" fill="#142023"/>
<path d="M47.7398 71.2798H5.25977V75.6598H47.7398V71.2798Z" fill="#FAC438"/>
<path opacity="0.2" d="M29.7609 33.8398L19.6309 43.9798V51.7698L34.0309 37.3698V34.6798H34.0009C33.8609 34.2998 32.1609 33.9898 29.7609 33.8398Z" fill="white"/>
<path opacity="0.2" d="M19.6309 55.0901H21.2909L34.0209 42.3501V40.0801L19.6309 54.4701V55.0901Z" fill="white"/>
<path opacity="0.2" d="M16.1707 33.9902L6.2207 43.9402V49.0702L17.9207 37.3702V34.6802C17.9207 34.4102 17.2507 34.1602 16.1707 33.9902Z" fill="white"/>
<path opacity="0.2" d="M6.2207 55.0504H7.8807L17.9207 45.0104V39.1904L6.2207 50.8804V55.0504Z" fill="white"/>
<path opacity="0.2" d="M45.0496 34.0601L35.0996 44.0001V50.0201L46.7996 38.3201V34.7401C46.7996 34.4701 46.1296 34.2301 45.0496 34.0601Z" fill="white"/>
<path opacity="0.2" d="M35.0996 55.1203H36.7596L46.7996 45.0803V42.8003L35.0996 54.5003V55.1203Z" fill="white"/>
<path d="M47.7402 75.6599H49.6602V33.4399L52.6502 30.3599H47.7402V75.6599Z" fill="#DBDEE0"/>
<path d="M3.39016 33.4399V75.6599H5.31016V30.3599H0.410156L3.39016 33.4399Z" fill="#DBDEE0"/>
<path d="M27.1495 64.6201C25.2795 64.6201 23.7695 66.1301 23.7695 68.0001C23.7695 69.8701 25.2795 71.3801 27.1495 71.3801C29.0195 71.3801 30.5295 69.8701 30.5295 68.0001C30.5295 66.1301 29.0095 64.6201 27.1495 64.6201Z" fill="#2E0000"/>
<path d="M27.1502 65.29C25.6802 65.29 24.4902 66.48 24.4902 67.95C24.4902 69.42 25.6802 70.61 27.1502 70.61C28.6202 70.61 29.8102 69.42 29.8102 67.95C29.8102 66.48 28.6202 65.29 27.1502 65.29Z" fill="#E0E0D6"/>
<path d="M11.5409 72.2798H9.71086C9.25086 72.2798 8.88086 72.6498 8.88086 73.1098C8.88086 73.5698 9.25086 73.9398 9.71086 73.9398H11.5309C11.9909 73.9398 12.3609 73.5698 12.3609 73.1098C12.3709 72.6498 11.9909 72.2798 11.5409 72.2798Z" fill="#B20009"/>
<path d="M43.1793 72.2798H41.3593C40.8993 72.2798 40.5293 72.6498 40.5293 73.1098C40.5293 73.5698 40.8993 73.9398 41.3593 73.9398H43.1793C43.6393 73.9398 44.0093 73.5698 44.0093 73.1098C44.0093 72.6498 43.6393 72.2798 43.1793 72.2798Z" fill="#B20009"/>
<path d="M0.460938 30.2499C0.460938 30.2899 0.470937 30.3199 0.470937 30.3599H7.64094C7.64094 30.3199 7.63094 30.2899 7.63094 30.2499C7.63094 25.0299 17.4309 20.7099 30.1409 20.0199C28.9709 19.9599 27.7709 19.9199 26.5609 19.9199C12.1409 19.9199 0.460938 24.5399 0.460938 30.2499Z" fill="#DBDEE0"/>
<path opacity="0.2" d="M26.5097 19.9199C25.2897 19.9199 24.0997 19.9599 22.9297 20.0199C35.6397 20.7099 45.4397 25.0299 45.4397 30.2499C45.4397 30.2899 45.4297 30.3199 45.4297 30.3599H52.5997C52.5997 30.3199 52.6097 30.2899 52.6097 30.2499C52.5997 24.5399 40.9197 19.9199 26.5097 19.9199Z" fill="white"/>
<path d="M31.6499 8.31982H21.1699V10.4298H31.6499V8.31982Z" fill="#142023"/>
<path d="M14.451 0.262937L13.7344 0.98877L22.3234 9.46915L23.04 8.74332L14.451 0.262937Z" fill="#142023"/>
<path d="M38.3971 0.265481L29.8105 8.74707L30.5273 9.4727L39.1139 0.991109L38.3971 0.265481Z" fill="#142023"/>
<path d="M41.4199 0L39.9999 0.01V0H12.0899H10.8599C10.5199 0 10.1999 0.07 9.89992 0.2L5.66992 2.09L6.09992 3.02L9.99992 1.24C10.2999 1.1 10.6399 1.03 10.9699 1.03H12.5599V1.02H39.8099L41.1299 1.03C41.4599 1.03 41.7799 1.11 42.0799 1.24L45.9999 3.03L46.4299 2.1L42.4399 0.23C42.1099 0.08 41.7699 0 41.4199 0Z" fill="#142023"/>
<path d="M27.4598 9.37012H25.5898V15.6001H27.4598V9.37012Z" fill="#142023"/>
<path d="M41.8897 13.9399H11.6797V21.8399H41.8897V13.9399Z" fill="#5E6B73"/>
<path d="M30.5302 15.5698H13.4902V19.9998H30.5302V15.5698Z" fill="#142023"/>
<path d="M40.2291 15.5698H31.8691V19.9998H40.2291V15.5698Z" fill="#142023"/>
<path opacity="0.2" d="M37.76 30.2598H15V75.4898H37.76V30.2598Z" fill="white"/>
</g>
<defs>
<clipPath id="clip0_501_2987">
<rect width="53.1" height="87.44" fill="white"/>
</clipPath>
</defs>
</svg>
